<svg width="2667" height="2667" viewBox="0 0 2667 2667" fill="none" xmlns="http://www.w3.org/2000/svg">
  <path d="M0 2666.67H2666.67V0.000240326H0V2666.67Z" fill="rgba(0,0,0,0)" />
  <path
    d="M647.111 1863.61C577.097 1863.61 520.341 1806.85 520.341 1736.84C520.341 1666.83 577.097 1610.07 647.111 1610.07C717.123 1610.07 773.879 1666.83 773.879 1736.84C773.879 1806.85 717.123 1863.61 647.111 1863.61ZM937.343 1771.32V1704.6L853.287 1681.24C848.611 1663.85 841.796 1647.35 833.139 1632.01L875.924 1556.32L828.747 1509.13L753.48 1551.68C737.969 1542.75 721.225 1535.73 703.576 1530.89L680.471 1447.72H613.751L590.645 1530.89C572.995 1535.73 556.251 1542.75 540.74 1551.68L465.473 1509.13L418.296 1556.32L461.083 1632.01C452.424 1647.35 445.611 1663.85 440.931 1681.24L356.877 1704.6V1771.32L441.609 1794.85C446.376 1811.77 453.155 1827.85 461.707 1842.79L418.296 1919.59L465.473 1966.77L542.716 1923.11C557.473 1931.4 573.315 1937.99 589.976 1942.6L613.751 2028.19H680.471L704.244 1942.6C720.905 1937.99 736.745 1931.4 751.504 1923.11L828.747 1966.77L875.924 1919.59L832.513 1842.79C841.068 1827.84 847.869 1811.77 852.637 1794.84L937.343 1771.32Z"
    fill="#D1C8CE" />
  <path
    d="M278.061 1677.73C248.291 1670.73 229.823 1640.95 236.812 1611.17C243.801 1581.4 273.601 1562.93 303.371 1569.92C333.141 1576.91 351.611 1606.71 344.62 1636.48C337.632 1666.25 307.832 1684.72 278.061 1677.73ZM410.688 1667.45L417.348 1639.08L383.937 1620.76C383.684 1612.91 382.435 1605.2 380.283 1597.83L406.035 1569.91L390.683 1545.13L354.431 1555.71C348.727 1550.36 342.308 1545.71 335.285 1541.89L333.764 1504.21L305.393 1497.56L287.265 1530.61C279.277 1530.91 271.456 1532.23 263.971 1534.47L236.212 1508.87L211.441 1524.23L222.077 1560.68C216.865 1566.33 212.32 1572.68 208.595 1579.6L170.523 1581.13L163.861 1609.51L197.541 1627.97C197.88 1635.65 199.157 1643.16 201.303 1650.36L175.176 1678.69L190.528 1703.47L227.731 1692.61C233.179 1697.61 239.256 1701.99 245.881 1705.61L247.445 1744.39L275.817 1751.04L294.469 1717.03C302.016 1716.72 309.409 1715.51 316.512 1713.45L344.999 1739.72L369.769 1724.37L358.977 1687.39C364.107 1681.88 368.603 1675.73 372.32 1669L410.688 1667.45Z"
    fill="#D1C8CE" />
  <path d="M900.587 1971.19H897.221V660.827H900.587V1971.19Z" fill="#9E8FAE" />
  <path
    d="M513.933 736.24C506.637 736.24 500.721 730.333 500.721 723.027C500.721 715.733 506.637 709.813 513.933 709.813C521.229 709.813 527.145 715.733 527.145 723.027C527.145 730.333 521.229 736.24 513.933 736.24Z"
    fill="#2191F2" />
  <path
    d="M652.864 729.227H542.711C539.772 729.227 537.391 726.853 537.391 723.907V721.067C537.391 718.133 539.772 715.747 542.711 715.747H652.864C655.803 715.747 658.184 718.133 658.184 721.067V723.907C658.184 726.853 655.803 729.227 652.864 729.227Z"
    fill="#9E8FAE" />
  <path
    d="M513.933 884.533C506.637 884.533 500.721 878.627 500.721 871.32C500.721 864.027 506.637 858.107 513.933 858.107C521.229 858.107 527.145 864.027 527.145 871.32C527.145 878.627 521.229 884.533 513.933 884.533Z"
    fill="#2191F2" />
  <path
    d="M652.864 877.533H542.711C539.772 877.533 537.391 875.147 537.391 872.213V869.36C537.391 866.427 539.772 864.04 542.711 864.04H652.864C655.803 864.04 658.184 866.427 658.184 869.36V872.213C658.184 875.147 655.803 877.533 652.864 877.533Z"
    fill="#9E8FAE" />
  <path
    d="M513.933 1077.59C506.637 1077.59 500.721 1071.68 500.721 1064.37C500.721 1057.08 506.637 1051.16 513.933 1051.16C521.229 1051.16 527.145 1057.08 527.145 1064.37C527.145 1071.68 521.229 1077.59 513.933 1077.59Z"
    fill="#2191F2" />
  <path
    d="M652.864 1070.59H542.711C539.772 1070.59 537.391 1068.2 537.391 1065.25V1062.41C537.391 1059.48 539.772 1057.09 542.711 1057.09H652.864C655.803 1057.09 658.184 1059.48 658.184 1062.41V1065.25C658.184 1068.2 655.803 1070.59 652.864 1070.59Z"
    fill="#9E8FAE" />
  <path
    d="M513.933 1127.47C506.637 1127.47 500.721 1121.56 500.721 1114.25C500.721 1106.96 506.637 1101.05 513.933 1101.05C521.229 1101.05 527.145 1106.96 527.145 1114.25C527.145 1121.56 521.229 1127.47 513.933 1127.47Z"
    fill="#2191F2" />
  <path
    d="M652.864 1120.47H542.711C539.772 1120.47 537.391 1118.08 537.391 1115.15V1112.31C537.391 1109.36 539.772 1106.97 542.711 1106.97H652.864C655.803 1106.97 658.184 1109.36 658.184 1112.31V1115.15C658.184 1118.08 655.803 1120.47 652.864 1120.47Z"
    fill="#9E8FAE" />
  <path
    d="M550.603 775.067C543.305 775.067 537.391 769.147 537.391 761.853C537.391 754.56 543.305 748.64 550.603 748.64C557.899 748.64 563.815 754.56 563.815 761.853C563.815 769.147 557.899 775.067 550.603 775.067Z"
    fill="#2191F2" />
  <path
    d="M689.533 768.053H579.38C576.443 768.053 574.06 765.68 574.06 762.733V759.893C574.06 756.96 576.443 754.573 579.38 754.573H689.533C692.472 754.573 694.853 756.96 694.853 759.893V762.733C694.853 765.68 692.472 768.053 689.533 768.053Z"
    fill="#9E8FAE" />
  <path
    d="M550.603 813.893C543.305 813.893 537.391 807.973 537.391 800.68C537.391 793.387 543.305 787.467 550.603 787.467C557.899 787.467 563.815 793.387 563.815 800.68C563.815 807.973 557.899 813.893 550.603 813.893Z"
    fill="#2191F2" />
  <path
    d="M735.369 806.88H579.38C576.443 806.88 574.06 804.507 574.06 801.56V798.72C574.06 795.787 576.443 793.4 579.38 793.4H735.369C738.308 793.4 740.689 795.787 740.689 798.72V801.56C740.689 804.507 738.308 806.88 735.369 806.88Z"
    fill="#9E8FAE" />
  <path
    d="M550.603 921.747C543.305 921.747 537.391 915.827 537.391 908.533C537.391 901.24 543.305 895.32 550.603 895.32C557.899 895.32 563.815 901.24 563.815 908.533C563.815 915.827 557.899 921.747 550.603 921.747Z"
    fill="#2191F2" />
  <path
    d="M771.5 914.734H579.38C576.443 914.734 574.06 912.36 574.06 909.413V906.573C574.06 903.64 576.443 901.254 579.38 901.254H771.5C774.439 901.254 776.82 903.64 776.82 906.573V909.413C776.82 912.36 774.439 914.734 771.5 914.734Z"
    fill="#9E8FAE" />
  <path
    d="M550.603 960.573C543.305 960.573 537.391 954.653 537.391 947.36C537.391 940.067 543.305 934.147 550.603 934.147C557.899 934.147 563.815 940.067 563.815 947.36C563.815 954.653 557.899 960.573 550.603 960.573Z"
    fill="#2191F2" />
  <path
    d="M705.711 953.56H579.38C576.443 953.56 574.06 951.173 574.06 948.24V945.4C574.06 942.467 576.443 940.08 579.38 940.08H705.711C708.649 940.08 711.031 942.467 711.031 945.4V948.24C711.031 951.173 708.649 953.56 705.711 953.56Z"
    fill="#9E8FAE" />
  <path
    d="M584.488 995.987C578.728 995.987 574.06 991.32 574.06 985.56C574.06 979.8 578.728 975.133 584.488 975.133C590.247 975.133 594.915 979.8 594.915 985.56C594.915 991.32 590.247 995.987 584.488 995.987Z"
    fill="#2191F2" />
  <path
    d="M823.268 990.453H608.321C605.384 990.453 603.001 988.08 603.001 985.133C603.001 982.2 605.384 979.813 608.321 979.813H823.268C826.207 979.813 828.588 982.2 828.588 985.133C828.588 988.08 826.207 990.453 823.268 990.453Z"
    fill="#9E8FAE" />
  <path
    d="M584.488 1026.63C578.728 1026.63 574.06 1021.96 574.06 1016.2C574.06 1010.44 578.728 1005.77 584.488 1005.77C590.247 1005.77 594.915 1010.44 594.915 1016.2C594.915 1021.96 590.247 1026.63 584.488 1026.63Z"
    fill="#2191F2" />
  <path
    d="M735.369 1021.09H608.321C605.384 1021.09 603.001 1018.72 603.001 1015.77C603.001 1012.84 605.384 1010.45 608.321 1010.45H735.369C738.308 1010.45 740.689 1012.84 740.689 1015.77C740.689 1018.72 738.308 1021.09 735.369 1021.09Z"
    fill="#9E8FAE" />
  <path
    d="M513.933 1183.29C506.637 1183.29 500.721 1177.37 500.721 1170.08C500.721 1162.77 506.637 1156.87 513.933 1156.87C521.229 1156.87 527.145 1162.77 527.145 1170.08C527.145 1177.37 521.229 1183.29 513.933 1183.29Z"
    fill="#2191F2" />
  <path
    d="M652.864 1176.28H542.711C539.772 1176.28 537.391 1173.89 537.391 1170.96V1168.12C537.391 1165.17 539.772 1162.8 542.711 1162.8H652.864C655.803 1162.8 658.184 1165.17 658.184 1168.12V1170.96C658.184 1173.89 655.803 1176.28 652.864 1176.28Z"
    fill="#9E8FAE" />
  <path
    d="M513.933 1331.59C506.637 1331.59 500.721 1325.67 500.721 1318.37C500.721 1311.08 506.637 1305.16 513.933 1305.16C521.229 1305.16 527.145 1311.08 527.145 1318.37C527.145 1325.67 521.229 1331.59 513.933 1331.59Z"
    fill="#2191F2" />
  <path
    d="M652.864 1324.57H542.711C539.772 1324.57 537.391 1322.19 537.391 1319.25V1316.41C537.391 1313.47 539.772 1311.09 542.711 1311.09H652.864C655.803 1311.09 658.184 1313.47 658.184 1316.41V1319.25C658.184 1322.19 655.803 1324.57 652.864 1324.57Z"
    fill="#9E8FAE" />
  <path
    d="M513.933 1524.64C506.637 1524.64 500.721 1518.72 500.721 1511.43C500.721 1504.13 506.637 1498.21 513.933 1498.21C521.229 1498.21 527.145 1504.13 527.145 1511.43C527.145 1518.72 521.229 1524.64 513.933 1524.64Z"
    fill="#2191F2" />
  <path
    d="M652.864 1517.63H542.711C539.772 1517.63 537.391 1515.24 537.391 1512.31V1509.47C537.391 1506.52 539.772 1504.15 542.711 1504.15H652.864C655.803 1504.15 658.184 1506.52 658.184 1509.47V1512.31C658.184 1515.24 655.803 1517.63 652.864 1517.63Z"
    fill="#9E8FAE" />
  <path
    d="M513.933 1574.52C506.637 1574.52 500.721 1568.6 500.721 1561.31C500.721 1554.01 506.637 1548.09 513.933 1548.09C521.229 1548.09 527.145 1554.01 527.145 1561.31C527.145 1568.6 521.229 1574.52 513.933 1574.52Z"
    fill="#2191F2" />
  <path
    d="M652.864 1567.51H542.711C539.772 1567.51 537.391 1565.12 537.391 1562.19V1559.35C537.391 1556.41 539.772 1554.03 542.711 1554.03H652.864C655.803 1554.03 658.184 1556.41 658.184 1559.35V1562.19C658.184 1565.12 655.803 1567.51 652.864 1567.51Z"
    fill="#9E8FAE" />
  <path
    d="M550.603 1222.12C543.305 1222.12 537.391 1216.2 537.391 1208.91C537.391 1201.6 543.305 1195.69 550.603 1195.69C557.899 1195.69 563.815 1201.6 563.815 1208.91C563.815 1216.2 557.899 1222.12 550.603 1222.12Z"
    fill="#2191F2" />
  <path
    d="M689.533 1215.11H579.38C576.443 1215.11 574.06 1212.72 574.06 1209.79V1206.95C574.06 1204 576.443 1201.63 579.38 1201.63H689.533C692.472 1201.63 694.853 1204 694.853 1206.95V1209.79C694.853 1212.72 692.472 1215.11 689.533 1215.11Z"
    fill="#9E8FAE" />
  <path
    d="M550.603 1260.95C543.305 1260.95 537.391 1255.03 537.391 1247.73C537.391 1240.43 543.305 1234.52 550.603 1234.52C557.899 1234.52 563.815 1240.43 563.815 1247.73C563.815 1255.03 557.899 1260.95 550.603 1260.95Z"
    fill="#2191F2" />
  <path
    d="M735.369 1253.93H579.38C576.443 1253.93 574.06 1251.55 574.06 1248.61V1245.77C574.06 1242.83 576.443 1240.45 579.38 1240.45H735.369C738.308 1240.45 740.689 1242.83 740.689 1245.77V1248.61C740.689 1251.55 738.308 1253.93 735.369 1253.93Z"
    fill="#9E8FAE" />
  <path
    d="M550.603 1368.79C543.305 1368.79 537.391 1362.88 537.391 1355.57C537.391 1348.28 543.305 1342.37 550.603 1342.37C557.899 1342.37 563.815 1348.28 563.815 1355.57C563.815 1362.88 557.899 1368.79 550.603 1368.79Z"
    fill="#2191F2" />
  <path
    d="M771.5 1361.79H579.38C576.443 1361.79 574.06 1359.4 574.06 1356.47V1353.61C574.06 1350.68 576.443 1348.29 579.38 1348.29H771.5C774.439 1348.29 776.82 1350.68 776.82 1353.61V1356.47C776.82 1359.4 774.439 1361.79 771.5 1361.79Z"
    fill="#9E8FAE" />
  <path
    d="M550.603 1407.61C543.305 1407.61 537.391 1401.71 537.391 1394.4C537.391 1387.11 543.305 1381.2 550.603 1381.2C557.899 1381.2 563.815 1387.11 563.815 1394.4C563.815 1401.71 557.899 1407.61 550.603 1407.61Z"
    fill="#2191F2" />
  <path
    d="M705.711 1400.61H579.38C576.443 1400.61 574.06 1398.23 574.06 1395.29V1392.44C574.06 1389.51 576.443 1387.12 579.38 1387.12H705.711C708.649 1387.12 711.031 1389.51 711.031 1392.44V1395.29C711.031 1398.23 708.649 1400.61 705.711 1400.61Z"
    fill="#9E8FAE" />
  <path
    d="M584.488 1443.03C578.728 1443.03 574.06 1438.36 574.06 1432.6C574.06 1426.84 578.728 1422.17 584.488 1422.17C590.247 1422.17 594.915 1426.84 594.915 1432.6C594.915 1438.36 590.247 1443.03 584.488 1443.03Z"
    fill="#2191F2" />
  <path
    d="M823.268 1437.51H608.321C605.384 1437.51 603.001 1435.12 603.001 1432.17C603.001 1429.24 605.384 1426.85 608.321 1426.85H823.268C826.207 1426.85 828.588 1429.24 828.588 1432.17C828.588 1435.12 826.207 1437.51 823.268 1437.51Z"
    fill="#9E8FAE" />
  <path
    d="M584.488 1473.68C578.728 1473.68 574.06 1469.01 574.06 1463.25C574.06 1457.49 578.728 1452.83 584.488 1452.83C590.247 1452.83 594.915 1457.49 594.915 1463.25C594.915 1469.01 590.247 1473.68 584.488 1473.68Z"
    fill="#2191F2" />
  <path
    d="M735.369 1468.15H608.321C605.384 1468.15 603.001 1465.76 603.001 1462.83C603.001 1459.88 605.384 1457.51 608.321 1457.51H735.369C738.308 1457.51 740.689 1459.88 740.689 1462.83C740.689 1465.76 738.308 1468.15 735.369 1468.15Z"
    fill="#9E8FAE" />
  <path
    d="M943.408 722.493C937.465 722.493 932.647 717.68 932.647 711.733C932.647 705.787 937.465 700.973 943.408 700.973C949.351 700.973 954.168 705.787 954.168 711.733C954.168 717.68 949.351 722.493 943.408 722.493Z"
    fill="#4F5569" />
  <path
    d="M1104.89 722.493H997.028C991.084 722.493 986.267 717.68 986.267 711.733C986.267 705.787 991.084 700.973 997.028 700.973H1104.89C1110.83 700.973 1115.65 705.787 1115.65 711.733C1115.65 717.68 1110.83 722.493 1104.89 722.493Z"
    fill="#FFCB30" />
  <path
    d="M1372.83 722.493H1158.37C1152.43 722.493 1147.61 717.68 1147.61 711.733C1147.61 705.787 1152.43 700.973 1158.37 700.973H1372.83C1378.77 700.973 1383.59 705.787 1383.59 711.733C1383.59 717.68 1378.77 722.493 1372.83 722.493Z"
    fill="#E4464A" />
  <path
    d="M943.408 785.827C937.465 785.827 932.647 781.013 932.647 775.067C932.647 769.12 937.465 764.307 943.408 764.307C949.351 764.307 954.168 769.12 954.168 775.067C954.168 781.013 949.351 785.827 943.408 785.827Z"
    fill="#4F5569" />
  <path
    d="M1297.95 785.827H997.028C991.084 785.827 986.267 781.013 986.267 775.067C986.267 769.12 991.084 764.307 997.028 764.307H1297.95C1303.89 764.307 1308.71 769.12 1308.71 775.067C1308.71 781.013 1303.89 785.827 1297.95 785.827Z"
    fill="#1957C2" />
  <path
    d="M1898.83 785.827H1351.44C1345.49 785.827 1340.67 781.013 1340.67 775.067C1340.67 769.12 1345.49 764.307 1351.44 764.307H1898.83C1904.77 764.307 1909.59 769.12 1909.59 775.067C1909.59 781.013 1904.77 785.827 1898.83 785.827Z"
    fill="#FFCB30" />
  <path
    d="M943.408 849.173C937.465 849.173 932.647 844.347 932.647 838.413C932.647 832.467 937.465 827.64 943.408 827.64C949.351 827.64 954.168 832.467 954.168 838.413C954.168 844.347 949.351 849.173 943.408 849.173Z"
    fill="#4F5569" />
  <path
    d="M1104.89 849.173H997.028C991.084 849.173 986.267 844.347 986.267 838.413C986.267 832.467 991.084 827.64 997.028 827.64H1104.89C1110.83 827.64 1115.65 832.467 1115.65 838.413C1115.65 844.347 1110.83 849.173 1104.89 849.173Z"
    fill="#1957C2" />
  <path
    d="M943.408 912.507C937.465 912.507 932.647 907.693 932.647 901.747C932.647 895.8 937.465 890.987 943.408 890.987C949.351 890.987 954.168 895.8 954.168 901.747C954.168 907.693 949.351 912.507 943.408 912.507Z"
    fill="#4F5569" />
  <path
    d="M1050.38 912.507H997.028C991.084 912.507 986.267 907.693 986.267 901.747C986.267 895.8 991.084 890.987 997.028 890.987H1050.38C1056.32 890.987 1061.14 895.8 1061.14 901.747C1061.14 907.693 1056.32 912.507 1050.38 912.507Z"
    fill="#E4464A" />
  <path
    d="M1297.95 912.507H1103.87C1097.92 912.507 1093.11 907.693 1093.11 901.747C1093.11 895.8 1097.92 890.987 1103.87 890.987H1297.95C1303.89 890.987 1308.71 895.8 1308.71 901.747C1308.71 907.693 1303.89 912.507 1297.95 912.507Z"
    fill="#9E8FAE" />
  <path
    d="M943.408 975.84C937.465 975.84 932.647 971.027 932.647 965.08C932.647 959.147 937.465 954.32 943.408 954.32C949.351 954.32 954.168 959.147 954.168 965.08C954.168 971.027 949.351 975.84 943.408 975.84Z"
    fill="#4F5569" />
  <path
    d="M1169.58 975.84H1061.72C1055.78 975.84 1050.96 971.027 1050.96 965.08C1050.96 959.147 1055.78 954.32 1061.72 954.32H1169.58C1175.52 954.32 1180.34 959.147 1180.34 965.08C1180.34 971.027 1175.52 975.84 1169.58 975.84Z"
    fill="#9E8FAE" />
  <path
    d="M1486.27 975.84H1223.06C1217.12 975.84 1212.3 971.027 1212.3 965.08C1212.3 959.147 1217.12 954.32 1223.06 954.32H1486.27C1492.21 954.32 1497.03 959.147 1497.03 965.08C1497.03 971.027 1492.21 975.84 1486.27 975.84Z"
    fill="#0C97B3" />
  <path
    d="M943.408 1039.19C937.465 1039.19 932.647 1034.36 932.647 1028.43C932.647 1022.48 937.465 1017.67 943.408 1017.67C949.351 1017.67 954.168 1022.48 954.168 1028.43C954.168 1034.36 949.351 1039.19 943.408 1039.19Z"
    fill="#4F5569" />
  <path
    d="M2010 1039.19H1061.72C1055.78 1039.19 1050.96 1034.36 1050.96 1028.43C1050.96 1022.48 1055.78 1017.67 1061.72 1017.67H2010C2015.95 1017.67 2020.76 1022.48 2020.76 1028.43C2020.76 1034.36 2015.95 1039.19 2010 1039.19Z"
    fill="#FFCB30" />
  <path
    d="M2180.17 1039.19H2070.76C2064.81 1039.19 2060 1034.36 2060 1028.43C2060 1022.48 2064.81 1017.67 2070.76 1017.67H2180.17C2186.12 1017.67 2190.93 1022.48 2190.93 1028.43C2190.93 1034.36 2186.12 1039.19 2180.17 1039.19Z"
    fill="#F5AB35" />
  <path
    d="M2180.17 1037.39H2070.76C2064.81 1037.39 2060 1032.57 2060 1026.63C2060 1020.69 2064.81 1015.87 2070.76 1015.87H2180.17C2186.12 1015.87 2190.93 1020.69 2190.93 1026.63C2190.93 1032.57 2186.12 1037.39 2180.17 1037.39Z"
    fill="#F5AB35" />
  <path
    d="M943.408 1102.52C937.465 1102.52 932.647 1097.71 932.647 1091.76C932.647 1085.81 937.465 1081 943.408 1081C949.351 1081 954.168 1085.81 954.168 1091.76C954.168 1097.71 949.351 1102.52 943.408 1102.52Z"
    fill="#4F5569" />
  <path
    d="M943.408 1165.85C937.465 1165.85 932.647 1161.04 932.647 1155.09C932.647 1149.16 937.465 1144.33 943.408 1144.33C949.351 1144.33 954.168 1149.16 954.168 1155.09C954.168 1161.04 949.351 1165.85 943.408 1165.85Z"
    fill="#4F5569" />
  <path
    d="M1921.32 1165.85H1136.02C1130.07 1165.85 1125.26 1161.04 1125.26 1155.09C1125.26 1149.16 1130.07 1144.33 1136.02 1144.33H1921.32C1927.27 1144.33 1932.08 1149.16 1932.08 1155.09C1932.08 1161.04 1927.27 1165.85 1921.32 1165.85Z"
    fill="#0C97B3" />
  <path
    d="M2180.17 1165.85H1977.28C1971.35 1165.85 1966.52 1161.04 1966.52 1155.09C1966.52 1149.16 1971.35 1144.33 1977.28 1144.33H2180.17C2186.12 1144.33 2190.93 1149.16 2190.93 1155.09C2190.93 1161.04 2186.12 1165.85 2180.17 1165.85Z"
    fill="#FFCB30" />
  <path
    d="M943.408 1229.2C937.465 1229.2 932.647 1224.37 932.647 1218.44C932.647 1212.49 937.465 1207.68 943.408 1207.68C949.351 1207.68 954.168 1212.49 954.168 1218.44C954.168 1224.37 949.351 1229.2 943.408 1229.2Z"
    fill="#4F5569" />
  <path
    d="M1114.5 1229.2H1061.72C1055.78 1229.2 1050.96 1224.37 1050.96 1218.44C1050.96 1212.49 1055.78 1207.68 1061.72 1207.68H1114.5C1120.44 1207.68 1125.26 1212.49 1125.26 1218.44C1125.26 1224.37 1120.44 1229.2 1114.5 1229.2Z"
    fill="#E4464A" />
  <path
    d="M943.408 1291.71C937.465 1291.71 932.647 1286.88 932.647 1280.95C932.647 1275 937.465 1270.17 943.408 1270.17C949.351 1270.17 954.168 1275 954.168 1280.95C954.168 1286.88 949.351 1291.71 943.408 1291.71Z"
    fill="#4F5569" />
  <path
    d="M1169.58 1291.71H1061.72C1055.78 1291.71 1050.96 1286.88 1050.96 1280.95C1050.96 1275 1055.78 1270.17 1061.72 1270.17H1169.58C1175.52 1270.17 1180.34 1275 1180.34 1280.95C1180.34 1286.88 1175.52 1291.71 1169.58 1291.71Z"
    fill="#9E8FAE" />
  <path
    d="M1486.27 1291.71H1223.06C1217.12 1291.71 1212.3 1286.88 1212.3 1280.95C1212.3 1275 1217.12 1270.17 1223.06 1270.17H1486.27C1492.21 1270.17 1497.03 1275 1497.03 1280.95C1497.03 1286.88 1492.21 1291.71 1486.27 1291.71Z"
    fill="#0C97B3" />
  <path
    d="M943.408 1355.04C937.465 1355.04 932.647 1350.23 932.647 1344.28C932.647 1338.33 937.465 1333.52 943.408 1333.52C949.351 1333.52 954.168 1338.33 954.168 1344.28C954.168 1350.23 949.351 1355.04 943.408 1355.04Z"
    fill="#4F5569" />
  <path
    d="M2010 1355.04H1061.72C1055.78 1355.04 1050.96 1350.23 1050.96 1344.28C1050.96 1338.33 1055.78 1333.52 1061.72 1333.52H2010C2015.95 1333.52 2020.76 1338.33 2020.76 1344.28C2020.76 1350.23 2015.95 1355.04 2010 1355.04Z"
    fill="#FFCB30" />
  <path
    d="M2180.17 1355.04H2070.76C2064.81 1355.04 2060 1350.23 2060 1344.28C2060 1338.33 2064.81 1333.52 2070.76 1333.52H2180.17C2186.12 1333.52 2190.93 1338.33 2190.93 1344.28C2190.93 1350.23 2186.12 1355.04 2180.17 1355.04Z"
    fill="#F5AB35" />
  <path
    d="M2180.17 1353.25H2070.76C2064.81 1353.25 2060 1348.43 2060 1342.49C2060 1336.55 2064.81 1331.73 2070.76 1331.73H2180.17C2186.12 1331.73 2190.93 1336.55 2190.93 1342.49C2190.93 1348.43 2186.12 1353.25 2180.17 1353.25Z"
    fill="#F5AB35" />
  <path
    d="M943.408 1418.37C937.465 1418.37 932.647 1413.56 932.647 1407.61C932.647 1401.68 937.465 1396.85 943.408 1396.85C949.351 1396.85 954.168 1401.68 954.168 1407.61C954.168 1413.56 949.351 1418.37 943.408 1418.37Z"
    fill="#4F5569" />
  <path
    d="M2451.01 1418.37H1136.02C1130.07 1418.37 1125.26 1413.56 1125.26 1407.61C1125.26 1401.68 1130.07 1396.85 1136.02 1396.85H2451.01C2456.95 1396.85 2461.77 1401.68 2461.77 1407.61C2461.77 1413.56 2456.95 1418.37 2451.01 1418.37Z"
    fill="#E4464A" />
  <path
    d="M943.408 1481.72C937.465 1481.72 932.647 1476.89 932.647 1470.96C932.647 1465.01 937.465 1460.2 943.408 1460.2C949.351 1460.2 954.168 1465.01 954.168 1470.96C954.168 1476.89 949.351 1481.72 943.408 1481.72Z"
    fill="#4F5569" />
  <path
    d="M1355.29 1481.72H1136.02C1130.07 1481.72 1125.26 1476.89 1125.26 1470.96C1125.26 1465.01 1130.07 1460.2 1136.02 1460.2H1355.29C1361.24 1460.2 1366.05 1465.01 1366.05 1470.96C1366.05 1476.89 1361.24 1481.72 1355.29 1481.72Z"
    fill="#0C97B3" />
  <path
    d="M1921.32 1481.72H1419.04C1413.09 1481.72 1408.28 1476.89 1408.28 1470.96C1408.28 1465.01 1413.09 1460.2 1419.04 1460.2H1921.32C1927.27 1460.2 1932.08 1465.01 1932.08 1470.96C1932.08 1476.89 1927.27 1481.72 1921.32 1481.72Z"
    fill="#9E8FAE" />
  <path
    d="M2180.17 1481.72H1977.28C1971.35 1481.72 1966.52 1476.89 1966.52 1470.96C1966.52 1465.01 1971.35 1460.2 1977.28 1460.2H2180.17C2186.12 1460.2 2190.93 1465.01 2190.93 1470.96C2190.93 1476.89 2186.12 1481.72 2180.17 1481.72Z"
    fill="#FFCB30" />
  <path
    d="M943.408 1545.05C937.465 1545.05 932.647 1540.24 932.647 1534.29C932.647 1528.35 937.465 1523.53 943.408 1523.53C949.351 1523.53 954.168 1528.35 954.168 1534.29C954.168 1540.24 949.351 1545.05 943.408 1545.05Z"
    fill="#4F5569" />
  <path
    d="M1114.5 1545.05H1061.72C1055.78 1545.05 1050.96 1540.24 1050.96 1534.29C1050.96 1528.35 1055.78 1523.53 1061.72 1523.53H1114.5C1120.44 1523.53 1125.26 1528.35 1125.26 1534.29C1125.26 1540.24 1120.44 1545.05 1114.5 1545.05Z"
    fill="#F5AB35" />
  <path
    d="M943.408 1607.56C937.465 1607.56 932.647 1602.75 932.647 1596.8C932.647 1590.85 937.465 1586.04 943.408 1586.04C949.351 1586.04 954.168 1590.85 954.168 1596.8C954.168 1602.75 949.351 1607.56 943.408 1607.56Z"
    fill="#4F5569" />
  <path
    d="M1169.58 1607.56H1061.72C1055.78 1607.56 1050.96 1602.75 1050.96 1596.8C1050.96 1590.85 1055.78 1586.04 1061.72 1586.04H1169.58C1175.52 1586.04 1180.34 1590.85 1180.34 1596.8C1180.34 1602.75 1175.52 1607.56 1169.58 1607.56Z"
    fill="#9E8FAE" />
  <path
    d="M1486.27 1607.56H1223.06C1217.12 1607.56 1212.3 1602.75 1212.3 1596.8C1212.3 1590.85 1217.12 1586.04 1223.06 1586.04H1486.27C1492.21 1586.04 1497.03 1590.85 1497.03 1596.8C1497.03 1602.75 1492.21 1607.56 1486.27 1607.56Z"
    fill="#0C97B3" />
  <path
    d="M943.408 1670.89C937.465 1670.89 932.647 1666.08 932.647 1660.13C932.647 1654.2 937.465 1649.37 943.408 1649.37C949.351 1649.37 954.168 1654.2 954.168 1660.13C954.168 1666.08 949.351 1670.89 943.408 1670.89Z"
    fill="#4F5569" />
  <path
    d="M2010 1670.89H1061.72C1055.78 1670.89 1050.96 1666.08 1050.96 1660.13C1050.96 1654.2 1055.78 1649.37 1061.72 1649.37H2010C2015.95 1649.37 2020.76 1654.2 2020.76 1660.13C2020.76 1666.08 2015.95 1670.89 2010 1670.89Z"
    fill="#FFCB30" />
  <path
    d="M2180.17 1670.89H2070.76C2064.81 1670.89 2060 1666.08 2060 1660.13C2060 1654.2 2064.81 1649.37 2070.76 1649.37H2180.17C2186.12 1649.37 2190.93 1654.2 2190.93 1660.13C2190.93 1666.08 2186.12 1670.89 2180.17 1670.89Z"
    fill="#F5AB35" />
  <path
    d="M2180.17 1669.11H2070.76C2064.81 1669.11 2060 1664.29 2060 1658.35C2060 1652.4 2064.81 1647.59 2070.76 1647.59H2180.17C2186.12 1647.59 2190.93 1652.4 2190.93 1658.35C2190.93 1664.29 2186.12 1669.11 2180.17 1669.11Z"
    fill="#FFCB30" />
  <path
    d="M943.408 1734.24C937.465 1734.24 932.647 1729.41 932.647 1723.48C932.647 1717.53 937.465 1712.72 943.408 1712.72C949.351 1712.72 954.168 1717.53 954.168 1723.48C954.168 1729.41 949.351 1734.24 943.408 1734.24Z"
    fill="#4F5569" />
  <path
    d="M2451.01 1734.24H1136.02C1130.07 1734.24 1125.26 1729.41 1125.26 1723.48C1125.26 1717.53 1130.07 1712.72 1136.02 1712.72H2451.01C2456.95 1712.72 2461.77 1717.53 2461.77 1723.48C2461.77 1729.41 2456.95 1734.24 2451.01 1734.24Z"
    fill="#0C97B3" />
  <path
    d="M943.408 1797.57C937.465 1797.57 932.647 1792.76 932.647 1786.81C932.647 1780.87 937.465 1776.05 943.408 1776.05C949.351 1776.05 954.168 1780.87 954.168 1786.81C954.168 1792.76 949.351 1797.57 943.408 1797.57Z"
    fill="#4F5569" />
  <path
    d="M1921.32 1797.57H1136.02C1130.07 1797.57 1125.26 1792.76 1125.26 1786.81C1125.26 1780.87 1130.07 1776.05 1136.02 1776.05H1921.32C1927.27 1776.05 1932.08 1780.87 1932.08 1786.81C1932.08 1792.76 1927.27 1797.57 1921.32 1797.57Z"
    fill="#9E8FAE" />
  <path
    d="M2180.17 1797.57H1977.28C1971.35 1797.57 1966.52 1792.76 1966.52 1786.81C1966.52 1780.87 1971.35 1776.05 1977.28 1776.05H2180.17C2186.12 1776.05 2190.93 1780.87 2190.93 1786.81C2190.93 1792.76 2186.12 1797.57 2180.17 1797.57Z"
    fill="#E4464A" />
  <path
    d="M2451.01 1797.57H2248.12C2242.17 1797.57 2237.36 1792.76 2237.36 1786.81C2237.36 1780.87 2242.17 1776.05 2248.12 1776.05H2451.01C2456.95 1776.05 2461.77 1780.87 2461.77 1786.81C2461.77 1792.76 2456.95 1797.57 2451.01 1797.57Z"
    fill="#9E8FAE" />
  <path
    d="M943.408 1860.91C937.465 1860.91 932.647 1856.09 932.647 1850.15C932.647 1844.21 937.465 1839.39 943.408 1839.39C949.351 1839.39 954.168 1844.21 954.168 1850.15C954.168 1856.09 949.351 1860.91 943.408 1860.91Z"
    fill="#4F5569" />
  <path
    d="M1114.5 1860.91H1061.72C1055.78 1860.91 1050.96 1856.09 1050.96 1850.15C1050.96 1844.21 1055.78 1839.39 1061.72 1839.39H1114.5C1120.44 1839.39 1125.26 1844.21 1125.26 1850.15C1125.26 1856.09 1120.44 1860.91 1114.5 1860.91Z"
    fill="#F5AB35" />
  <path
    d="M879.613 1758.17C855.505 1730.76 855.143 1688.83 867.805 1654.59C880.467 1620.35 903.963 1591.44 924.736 1561.43C945.509 1531.41 964.393 1497.96 965.563 1461.48C967.732 1393.79 910.483 1340.28 886.943 1276.79C880.979 1260.69 877.277 1244.05 875.528 1227.15C861.119 1083.28 939.433 922.734 1078.44 873.787C1096.07 865.96 1119.56 877.707 1119.56 895.32C1121.52 934.48 1084.32 965.814 1084.32 1006.92C1084.32 1010.84 1086.28 1018.67 1088.23 1020.63C1158.72 1059.79 1172.42 1130.27 1099.98 1177.25C1094.11 1183.13 1092.15 1190.96 1088.05 1198.2C1083.18 1210.68 1082.61 1224.04 1084.73 1237.28C1086.85 1250.51 1091.66 1263.64 1097.56 1275.67C1109.35 1299.72 1125.4 1321.79 1134.11 1347.12C1157.93 1416.32 1122.19 1491.52 1079.71 1551.12C1037.22 1610.72 985.399 1668.08 971.533 1739.95C967.092 1762.96 966.62 1787.28 956.251 1808.31C945.88 1829.32 920.752 1845.93 899.221 1836.67C897.796 1830.35 896.369 1824.03 894.943 1817.71"
    fill="#1957C2" />
  <path
    d="M939.744 1543.89L937.819 1541.57C1035.76 1460.36 1006.63 1338.69 978.455 1221.04C976.025 1210.89 973.597 1200.76 971.251 1190.65C955.633 1123.44 976.82 1065.21 997.341 1028.21C1019.56 988.173 1045.83 963.64 1046.09 963.4L1048.14 965.613C1047.1 966.573 944.715 1063.12 974.187 1189.97C976.532 1200.07 978.959 1210.2 981.387 1220.35C1009.77 1338.89 1039.13 1461.48 939.744 1543.89Z"
    fill="#031162" />
  <path
    d="M678.409 1348.23C642.279 1307.31 618.311 1251.99 627.924 1198.27C637.536 1144.53 688.185 1097.17 742.393 1103.55C712.276 1056.51 681.213 1006.63 678.363 950.84C675.512 895.067 712.427 833.067 768.161 829.347C791.82 827.773 814.669 838.64 830.876 855.787C847.413 873.787 857.203 897.28 855.244 920.773C843.497 905.107 859.16 885.533 874.824 881.613C884.612 879.667 894.403 881.613 902.233 887.493C917.897 901.2 927.687 920.773 923.771 940.36C912.024 987.347 878.739 1030.41 902.233 1079.36C939.433 1153.76 972.719 1226.21 989.533 1306.97C992.824 1320.08 995.895 1333.28 998.591 1346.55C1001.29 1359.8 1003.61 1373.15 1005.55 1386.55C1010.73 1422.32 1012.93 1460.12 998.769 1493.37C981.9 1532.99 943.645 1561.64 931.724 1603.01C912.812 1668.61 966.139 1743.95 934.229 1804.31C911.116 1848.03 849.044 1855.96 808.497 1833.48C750.691 1801.44 749.26 1725.53 763.996 1668.73C777.919 1615.07 808.616 1568.85 800.101 1510.31C797.143 1489.99 789.889 1472.36 779.988 1456.41C754.333 1415.11 710.912 1385.03 678.409 1348.23Z"
    fill="#7DADFF" />
  <path d="M664.496 1748.35H1068.26L959.732 1964.52H760.085L664.496 1748.35Z" fill="#FFCB30" />
  <path
    d="M865.013 1737.24C864.601 1736.37 854.9 1715.44 852.941 1674.65C851.139 1637.13 855.948 1575.08 889.087 1492.57C934.333 1379.92 874.791 1267.31 831.315 1185.08C813.593 1151.56 798.289 1122.61 793.727 1100.56C778.139 1025.21 822.12 934.72 822.567 933.813L825.271 935.147C824.829 936.04 781.304 1025.63 796.679 1099.95C801.155 1121.57 816.365 1150.35 833.98 1183.67C877.731 1266.41 937.649 1379.75 891.885 1493.69C858.996 1575.59 854.185 1637.09 855.943 1674.28C857.843 1714.55 867.64 1735.75 867.739 1735.95L865.013 1737.24Z"
    fill="#031162" />
  <path
    d="M891.984 1493.31L888.989 1492.96C894.901 1442.33 883.825 1366.4 797.483 1292.12C745.728 1247.6 690.755 1224.56 690.205 1224.33L691.36 1221.55C691.913 1221.79 747.332 1245 799.448 1289.84C847.66 1331.31 902.848 1400.28 891.984 1493.31Z"
    fill="#031162" />
  <path
    d="M816.212 1156.09C797.311 1093.16 814.715 1044.09 832.643 1014.01C852.056 981.427 876.301 963.467 876.543 963.28L878.325 965.72C878.085 965.894 854.264 983.574 835.171 1015.65C817.589 1045.2 800.528 1093.4 819.099 1155.23L816.212 1156.09Z"
    fill="#031162" />
  <path
    d="M881.301 1521.87L878.293 1521.67C881.548 1474 874.079 1408.59 820.019 1367.63C787.692 1343.13 753.603 1338.97 753.261 1338.93L753.607 1335.95C753.955 1335.99 788.863 1340.24 821.837 1365.23C876.972 1407 884.605 1473.47 881.301 1521.87Z"
    fill="#031162" />
  <path
    d="M984.76 1234.8L981.756 1234.53C985.532 1191.43 998.607 1133.57 1039.44 1102.77C1064.01 1084.25 1086.64 1084.39 1087.6 1084.39L1087.56 1087.4C1087.32 1087.44 1064.85 1087.32 1041.09 1105.31C1001.27 1135.48 988.475 1192.37 984.76 1234.8Z"
    fill="#031162" />
  <path
    d="M672.48 1201.68C668.908 1201.68 666.003 1204.59 666.003 1208.16C666.003 1211.73 668.908 1214.64 672.48 1214.64C676.053 1214.64 678.959 1211.73 678.959 1208.16C678.959 1204.59 676.053 1201.68 672.48 1201.68ZM672.48 1217.65C667.247 1217.65 662.988 1213.4 662.988 1208.16C662.988 1202.93 667.247 1198.67 672.48 1198.67C677.715 1198.67 681.972 1202.93 681.972 1208.16C681.972 1213.4 677.715 1217.65 672.48 1217.65Z"
    fill="#031162" />
  <path
    d="M1104.22 1075C1101.63 1075 1099.53 1077.11 1099.53 1079.69C1099.53 1082.28 1101.63 1084.39 1104.22 1084.39C1106.81 1084.39 1108.91 1082.28 1108.91 1079.69C1108.91 1077.11 1106.81 1075 1104.22 1075ZM1104.22 1087.4C1099.97 1087.4 1096.52 1083.95 1096.52 1079.69C1096.52 1075.44 1099.97 1071.99 1104.22 1071.99C1108.47 1071.99 1111.93 1075.44 1111.93 1079.69C1111.93 1083.95 1108.47 1087.4 1104.22 1087.4Z"
    fill="#031162" />
  <path
    d="M731.408 1331.48C728.191 1331.48 725.573 1334.11 725.573 1337.32C725.573 1340.53 728.191 1343.16 731.408 1343.16C734.625 1343.16 737.243 1340.53 737.243 1337.32C737.243 1334.11 734.625 1331.48 731.408 1331.48ZM731.408 1346.16C726.528 1346.16 722.559 1342.2 722.559 1337.32C722.559 1332.44 726.528 1328.47 731.408 1328.47C736.288 1328.47 740.257 1332.44 740.257 1337.32C740.257 1342.2 736.288 1346.16 731.408 1346.16Z"
    fill="#031162" />
  <path
    d="M828.521 915.427C826.059 915.427 824.057 917.427 824.057 919.893C824.057 922.36 826.059 924.36 828.521 924.36C830.983 924.36 832.985 922.36 832.985 919.893C832.985 917.427 830.983 915.427 828.521 915.427ZM828.521 927.373C824.397 927.373 821.043 924.013 821.043 919.893C821.043 915.773 824.397 912.413 828.521 912.413C832.644 912.413 836 915.773 836 919.893C836 924.013 832.644 927.373 828.521 927.373Z"
    fill="#031162" />
  <path
    d="M890.195 951.653C887.733 951.653 885.731 953.653 885.731 956.12C885.731 958.573 887.733 960.573 890.195 960.573C892.656 960.573 894.659 958.573 894.659 956.12C894.659 953.653 892.656 951.653 890.195 951.653ZM890.195 963.587C886.071 963.587 882.717 960.24 882.717 956.12C882.717 951.987 886.071 948.64 890.195 948.64C894.317 948.64 897.672 951.987 897.672 956.12C897.672 960.24 894.317 963.587 890.195 963.587Z"
    fill="#031162" />
  <path
    d="M1059.55 938.147C1055.15 938.147 1051.56 941.72 1051.56 946.133C1051.56 950.533 1055.15 954.12 1059.55 954.12C1063.95 954.12 1067.54 950.533 1067.54 946.133C1067.54 941.72 1063.95 938.147 1059.55 938.147ZM1059.55 957.133C1053.48 957.133 1048.55 952.2 1048.55 946.133C1048.55 940.067 1053.48 935.12 1059.55 935.12C1065.62 935.12 1070.55 940.067 1070.55 946.133C1070.55 952.2 1065.62 957.133 1059.55 957.133Z"
    fill="#031162" />
  <path
    d="M1746.12 1339.48C1746.12 1387.93 1706.84 1427.21 1658.39 1427.21C1609.92 1427.21 1570.64 1387.93 1570.64 1339.48C1570.64 1291.03 1609.92 1251.75 1658.39 1251.75C1706.84 1251.75 1746.12 1291.03 1746.12 1339.48Z"
    fill="#FFCB30" />
  <path
    d="M1612.81 1398.07C1614.17 1398.07 1615.52 1397.53 1616.53 1396.48C1618.51 1394.44 1618.44 1391.17 1616.39 1389.21C1597.23 1370.79 1597.01 1344.03 1597.01 1343.75C1597.01 1340.91 1594.71 1338.6 1591.87 1338.6C1589.03 1338.6 1586.72 1340.91 1586.72 1343.75C1586.72 1345.03 1586.97 1375.2 1609.25 1396.63C1610.25 1397.59 1611.53 1398.07 1612.81 1398.07Z"
    fill="#F8F8F8" />
  <path
    d="M2026.12 1860.67L2098.05 1490.89L1821.75 1194.27L1836.24 1173.95L2127.08 1481.88L2054.33 1856.71L2026.12 1860.67Z"
    fill="#031162" />
  <path d="M1853.61 1192.35L1885.92 1226.55H1851.81L1840.71 1214.61L1853.61 1192.35Z" fill="#031162" />
  <path d="M2112.72 1555.85L2090.65 1528.93L2092.03 1521.85L2119.75 1519.67L2112.72 1555.85Z" fill="#031162" />
  <path
    d="M1946.45 1907.17C1946.45 1909.15 1944.85 1910.77 1942.85 1910.77H1895.16C1893.17 1910.77 1891.55 1909.15 1891.55 1907.17V1871.16C1891.55 1869.17 1893.17 1867.56 1895.16 1867.56H1942.85C1944.85 1867.56 1946.45 1869.17 1946.45 1871.16V1907.17Z"
    fill="#F8F8F8" />
  <path
    d="M2040.23 1873.12C1922.72 1873.12 1827.45 1900.55 1827.45 1949.68H2253C2253 1900.55 2157.75 1873.12 2040.23 1873.12Z"
    fill="#031162" />
  <path
    d="M2040.23 1903.75C2018.85 1903.75 2023.12 1887.55 2031.09 1873.17C2034.12 1873.15 2037.16 1873.12 2040.23 1873.12C2066.16 1873.12 2091.01 1874.45 2114 1877.07C2102.15 1884.93 2070.57 1903.75 2040.23 1903.75Z"
    fill="#031162" />
  <path
    d="M1860.27 1218.64C1842.35 1235.92 1813.81 1235.4 1796.53 1217.47C1779.25 1199.56 1779.8 1171.03 1797.71 1153.76C1815.63 1136.48 1844.16 1137.01 1861.44 1154.93C1878.71 1172.85 1878.19 1201.37 1860.27 1218.64Z"
    fill="#1957C2" />
  <path
    d="M1844.09 1201.88C1835.44 1210.21 1821.65 1209.96 1813.32 1201.31C1804.97 1192.65 1805.23 1178.88 1813.89 1170.53C1822.55 1162.19 1836.32 1162.44 1844.67 1171.11C1853 1179.75 1852.75 1193.53 1844.09 1201.88Z"
    fill="#031162" />
  <path
    d="M2157.27 1486.24C2157.27 1511.12 2137.08 1531.31 2112.2 1531.31C2087.31 1531.31 2067.13 1511.12 2067.13 1486.24C2067.13 1461.35 2087.31 1441.17 2112.2 1441.17C2137.08 1441.17 2157.27 1461.35 2157.27 1486.24Z"
    fill="#1957C2" />
  <path
    d="M2133.96 1486.24C2133.96 1498.25 2124.23 1508 2112.2 1508C2100.19 1508 2090.43 1498.25 2090.43 1486.24C2090.43 1474.21 2100.19 1464.47 2112.2 1464.47C2124.23 1464.47 2133.96 1474.21 2133.96 1486.24Z"
    fill="#031162" />
  <path
    d="M2085.28 1858.68C2085.28 1883.57 2065.11 1903.75 2040.23 1903.75C2015.33 1903.75 1995.16 1883.57 1995.16 1858.68C1995.16 1833.8 2015.33 1813.61 2040.23 1813.61C2065.11 1813.61 2085.28 1833.8 2085.28 1858.68Z"
    fill="#1957C2" />
  <path
    d="M2061.99 1858.68C2061.99 1870.69 2052.25 1880.45 2040.23 1880.45C2028.2 1880.45 2018.45 1870.69 2018.45 1858.68C2018.45 1846.67 2028.2 1836.92 2040.23 1836.92C2052.25 1836.92 2061.99 1846.67 2061.99 1858.68Z"
    fill="#031162" />
  <path d="M1811.73 1249.88L1763.84 1200.2L1784.15 1180.64L1832.03 1230.31L1811.73 1249.88Z" fill="#031162" />
  <path
    d="M1547.99 1278.84C1635.67 1194.33 1717.08 1139.52 1796.28 1218.72C1869.08 1291.52 1814.75 1380.12 1727.07 1464.63L1547.99 1278.84Z"
    fill="#1957C2" />
  <path
    d="M1828.88 1170.53C1820.59 1170.53 1813.89 1177.24 1813.89 1185.52C1813.89 1193.8 1820.59 1200.51 1828.88 1200.51C1837.15 1200.51 1843.85 1193.8 1843.85 1185.52C1843.85 1177.24 1837.15 1170.53 1828.88 1170.53Z"
    fill="#F8F8F8" />
  <path
    d="M2112.2 1470.96C2103.92 1470.96 2097.21 1477.67 2097.21 1485.95C2097.21 1494.23 2103.92 1500.93 2112.2 1500.93C2120.48 1500.93 2127.19 1494.23 2127.19 1485.95C2127.19 1477.67 2120.48 1470.96 2112.2 1470.96Z"
    fill="#F8F8F8" />
  <path
    d="M2040.23 1843.69C2031.95 1843.69 2025.24 1850.4 2025.24 1858.68C2025.24 1866.96 2031.95 1873.68 2040.23 1873.68C2048.51 1873.68 2055.2 1866.96 2055.2 1858.68C2055.2 1850.4 2048.51 1843.69 2040.23 1843.69Z"
    fill="#F8F8F8" />
  <path
    d="M1488.03 2375.91C1484.09 2375.91 1480.09 2375.21 1476.07 2373.68C1449.52 2363.59 1448.09 2327.64 1438.27 2300.97C1425.37 2266 1389.37 2240.89 1352.09 2240.88C1352.08 2240.88 1352.07 2240.88 1352.05 2240.88C1325.69 2240.88 1299.92 2253.43 1282.6 2273.13C1267.16 2290.69 1267.29 2326.49 1246.68 2336.75C1240.09 2340.03 1234.46 2341.51 1229.64 2341.51C1188.02 2341.51 1207.25 2230.85 1200.59 2210.21C1188.22 2171.88 1144.76 2152.29 1104.64 2148.75C1097.42 2148.11 1090.2 2147.83 1082.98 2147.83C1048.66 2147.83 1014.33 2154 979.964 2156.39C972.236 2156.92 964.409 2157.24 956.567 2157.24C922.196 2157.24 887.561 2151.2 859.972 2131.41C826.089 2107.11 808.52 2056.55 831.791 2021.95C846.815 1999.6 874.841 1988.92 901.744 1987.89C903.492 1987.83 905.235 1987.8 906.98 1987.8C932.079 1987.8 956.791 1994.47 981.207 2000.6C1126.58 2037.05 1276.43 2055.33 1426.31 2055.33C1553.2 2055.33 1680.12 2042.23 1804.28 2015.97C1821 2012.44 1838.11 2008.65 1855.07 2008.65C1861.31 2008.65 1867.53 2009.17 1873.72 2010.4C1896.67 2014.96 1918.88 2032.39 1920.84 2055.71C1922.73 2078.23 1905.11 2098.63 1884.41 2107.75C1863.73 2116.85 1840.44 2117.29 1817.87 2118.37C1738.12 2122.15 1658.83 2135.59 1582.29 2158.32C1605.05 2161.24 1618.83 2187.36 1616.63 2210.2C1614.44 2233.05 1600.88 2253 1587.76 2271.83C1573.35 2292.49 1558.95 2313.17 1544.53 2333.84C1530.65 2353.75 1510.23 2375.92 1488.03 2375.91Z"
    fill="#D3D3D3" />
  <path d="M1079.47 1868.91L1720.75 1840.92L1681.09 1985.85L1307.71 2142.44L1069.93 2036.45L1079.47 1868.91Z"
    fill="#031162" />
  <path d="M1147.88 1807.55L1153.45 1921.53H1643.45L1655.8 1682.91L1147.88 1807.55Z" fill="#FF654D" />
  <path
    d="M1305.46 1364.93C1305.46 1364.93 1096.21 1407.35 1057.72 1438.93C1019.23 1470.53 981.115 1858.19 994.124 1876.08C1007.13 1893.96 1790.24 1912.24 1808.28 1878.72C1826.33 1845.19 1725.77 1443.72 1698.69 1423.6C1671.61 1403.49 1371.79 1360.41 1305.46 1364.93Z"
    fill="#FF654D" />
  <path
    d="M1643.51 1775.08L1643.31 1775.07C1642.04 1774.96 1641.09 1773.84 1641.2 1772.57C1647.6 1698.72 1641.27 1490.75 1641.2 1488.65C1641.16 1487.39 1642.16 1486.32 1643.43 1486.28C1644.6 1486.19 1645.76 1487.24 1645.8 1488.51C1645.87 1490.6 1652.21 1698.85 1645.8 1772.97C1645.69 1774.17 1644.68 1775.08 1643.51 1775.08Z"
    fill="#000D41" />
  <path
    d="M1126.52 1767.52L1126.26 1767.51C1124.99 1767.36 1124.08 1766.21 1124.23 1764.95C1134.22 1677.52 1116.21 1497.93 1116.02 1496.13C1115.89 1494.87 1116.82 1493.73 1118.08 1493.61C1119.35 1493.48 1120.48 1494.4 1120.61 1495.67C1120.79 1497.48 1138.86 1677.56 1128.81 1765.47C1128.67 1766.65 1127.68 1767.52 1126.52 1767.52Z"
    fill="#000D41" />
  <path
    d="M1199.19 1859.96L1189.31 1820.03C1188.63 1817.29 1190.21 1814.49 1192.91 1813.65L1206.43 1809.45C1208.32 1808.87 1209.73 1807.28 1210.09 1805.33L1212.39 1792.93C1212.86 1790.41 1215.06 1788.57 1217.63 1788.57H1228.69C1230.53 1788.57 1232.24 1787.63 1233.21 1786.08L1239.96 1775.28C1241.49 1772.83 1244.7 1772.04 1247.19 1773.52L1260 1781.11C1261.64 1782.08 1263.66 1782.11 1265.32 1781.17L1272.84 1776.97C1275.27 1775.61 1278.35 1776.36 1279.89 1778.68L1306.83 1819.4C1308.49 1821.91 1307.74 1825.31 1305.16 1826.88L1299.19 1830.53C1296.99 1831.88 1294.13 1831.45 1292.42 1829.51C1288.89 1825.52 1282.34 1828.6 1283.17 1833.87L1283.44 1835.64C1283.8 1837.93 1282.62 1840.2 1280.53 1841.24L1227.7 1867.31C1227.35 1867.48 1227 1867.61 1226.62 1867.71C1223.31 1868.52 1207.08 1871.93 1199.93 1861.65C1199.58 1861.15 1199.34 1860.56 1199.19 1859.96Z"
    fill="#FEBAC7" />
  <path
    d="M1571.45 1859.96L1581.35 1820.03C1582.01 1817.29 1580.44 1814.49 1577.75 1813.65L1564.23 1809.45C1562.33 1808.87 1560.92 1807.28 1560.56 1805.33L1558.27 1792.93C1557.8 1790.41 1555.6 1788.57 1553.03 1788.57H1541.96C1540.12 1788.57 1538.41 1787.63 1537.44 1786.08L1530.69 1775.28C1529.16 1772.83 1525.95 1772.04 1523.45 1773.52L1510.65 1781.11C1509.01 1782.08 1506.99 1782.11 1505.33 1781.17L1497.81 1776.97C1495.39 1775.61 1492.31 1776.36 1490.77 1778.68L1463.83 1819.4C1462.16 1821.91 1462.92 1825.31 1465.49 1826.88L1471.47 1830.53C1473.67 1831.88 1476.52 1831.45 1478.23 1829.51C1481.76 1825.52 1488.31 1828.6 1487.49 1833.87L1487.21 1835.64C1486.85 1837.93 1488.03 1840.2 1490.12 1841.24L1542.95 1867.31C1543.31 1867.48 1543.65 1867.61 1544.04 1867.71C1547.35 1868.52 1563.57 1871.93 1570.72 1861.65C1571.08 1861.15 1571.31 1860.56 1571.45 1859.96Z"
    fill="#FEBAC7" />
  <path
    d="M1189.16 1806.39L1188.82 1806.36L1063.55 1787.91C1062.29 1787.72 1061.41 1786.55 1061.6 1785.29C1061.79 1784.04 1062.96 1783.16 1064.22 1783.35L1189.49 1801.8C1190.75 1801.99 1191.62 1803.16 1191.43 1804.41C1191.27 1805.56 1190.28 1806.39 1189.16 1806.39Z"
    fill="#000D41" />
  <path
    d="M1592.53 1813.03C1591.44 1813.03 1590.47 1812.24 1590.27 1811.12C1590.04 1809.87 1590.88 1808.68 1592.13 1808.45L1693.97 1790.28C1695.23 1790.05 1696.43 1790.89 1696.64 1792.15C1696.87 1793.4 1696.04 1794.6 1694.79 1794.83L1592.93 1812.99C1592.8 1813.01 1592.67 1813.03 1592.53 1813.03Z"
    fill="#000D41" />
  <path
    d="M1272.02 1275.21C1272.02 1275.21 1254.44 1426.36 1362.08 1426.36C1460 1426.36 1456.59 1296.32 1456.59 1296.32C1456.59 1296.32 1466.37 1215.84 1390.47 1206.73C1314.56 1197.63 1267.44 1248.05 1272.02 1275.21Z"
    fill="#FEBAC7" />
  <path
    d="M1430.53 1225.63C1430.53 1225.63 1406.61 1272.48 1430.85 1296.28C1446.33 1311.45 1453.17 1333.36 1448.2 1354.47L1447.95 1355.6C1447.95 1355.6 1488.59 1323.4 1496.12 1258.12C1503.64 1192.84 1474.03 1151.76 1448.95 1156.39C1448.95 1156.39 1438.96 1106.24 1375.25 1110.93C1311.55 1115.61 1258.97 1110.45 1235.91 1160.95C1212.84 1211.45 1253.05 1255.68 1253.05 1255.68C1253.05 1255.68 1256.19 1309.12 1277.93 1355.63L1269.44 1293.21C1269.44 1293.21 1339.44 1199.17 1430.53 1225.63Z"
    fill="#031162" />
  <path
    d="M1455.36 1304.43L1447.95 1355.6C1447.95 1355.6 1484.12 1336.39 1483.55 1310.33C1483.35 1301.65 1480.33 1296.85 1476.4 1294.32C1468.01 1288.91 1456.8 1294.55 1455.36 1304.43Z"
    fill="#FEBAC7" />
  <path
    d="M1272.23 1289.71L1278.5 1355.6C1278.5 1355.6 1243.73 1335.45 1244.31 1309.39C1244.89 1283.33 1272.23 1289.71 1272.23 1289.71Z"
    fill="#FEBAC7" />
  <path
    d="M1557.01 1642.85H1194.52C1178.59 1642.85 1165.67 1655.77 1165.67 1671.71V1910.93C1165.67 1926.87 1178.59 1939.79 1194.52 1939.79H1557.01C1572.95 1939.79 1585.87 1926.87 1585.87 1910.93V1671.71C1585.87 1655.77 1572.95 1642.85 1557.01 1642.85Z"
    fill="#F8F8F8" />
  <path
    d="M1578.88 1953.76H1172.66C1168.8 1953.76 1165.67 1950.64 1165.67 1946.77C1165.67 1942.92 1168.8 1939.79 1172.66 1939.79H1578.88C1582.73 1939.79 1585.87 1942.92 1585.87 1946.77C1585.87 1950.64 1582.73 1953.76 1578.88 1953.76Z"
    fill="#746980" />
  <path
    d="M1518.43 1946.25C1518.43 1947.89 1517.09 1949.23 1515.45 1949.23C1513.81 1949.23 1512.48 1947.89 1512.48 1946.25C1512.48 1944.61 1513.81 1943.28 1515.45 1943.28C1517.09 1943.28 1518.43 1944.61 1518.43 1946.25Z"
    fill="#9E8FAE" />
  <path d="M1481.24 1949.23H1505.28V1943.28H1481.24V1949.23Z" fill="#9E8FAE" />
  <path
    d="M944.563 1771.79L1501.17 2109.73C1456.36 2146.12 1431.43 2193.65 1421.4 2249.56L841.597 1957.57C783.233 1928.17 764.965 1853.57 803.147 1800.55C835.559 1755.52 897.144 1743 944.563 1771.79Z"
    fill="#1957C2" />
  <path
    d="M1340.21 2161.04L1304.87 2190.88L1374.79 2226.09C1395.71 2208.08 1436.49 2173.35 1442.57 2171.03C1450.79 2167.89 1340.21 2161.04 1340.21 2161.04Z"
    fill="#031162" />
  <path
    d="M1501.17 2109.73L1593.88 2161.97C1600.8 2165.87 1603.21 2174.65 1599.25 2181.55C1574.8 2224.19 1493.24 2362.03 1450.13 2380.76C1450.13 2380.76 1415.33 2369.59 1428.67 2324.08C1441.99 2278.59 1424.05 2236.49 1424.05 2236.49C1424.05 2236.49 1427.08 2130.43 1501.17 2109.73Z"
    fill="#031162" />
  <path
    d="M1450.13 2380.76C1493.24 2362.03 1574.8 2224.19 1599.25 2181.55C1602.37 2176.11 1601.52 2169.51 1597.63 2165.04C1581.07 2174.84 1509.33 2224.65 1450.13 2380.76Z"
    fill="#2C4B80" />
  <path
    d="M1793.35 1809.95L1205.25 2089.53C1246.13 2130.28 1266.11 2180.11 1270.4 2236.75L1876.88 2005.24C1937.93 1981.93 1963.69 1909.57 1931.11 1852.93C1903.44 1804.85 1843.44 1786.13 1793.35 1809.95Z"
    fill="#1957C2" />
  <path
    d="M1205.25 2089.53L1107.72 2132.08C1100.44 2135.25 1097.15 2143.75 1100.37 2151C1120.37 2195.91 1187.49 2341.32 1228.47 2364.35C1228.47 2364.35 1264.22 2356.77 1255.59 2310.15C1246.96 2263.53 1269.08 2223.48 1269.08 2223.48C1269.08 2223.48 1276.85 2117.65 1205.25 2089.53Z"
    fill="#031162" />
  <path
    d="M1228.47 2364.35C1187.49 2341.32 1120.37 2195.91 1100.37 2151C1097.83 2145.28 1099.35 2138.79 1103.68 2134.75C1119.16 2146.17 1185.46 2203.03 1228.47 2364.35Z"
    fill="#2C4B80" />
  <path
    d="M995.112 1776.31C990.955 1830.37 990.137 1870.59 994.124 1876.08C997.781 1881.11 1062.31 1886.16 1153.59 1890.09L995.112 1776.31Z"
    fill="#FF654D" />
  <path
    d="M1582.4 1897.03C1706.28 1895.6 1802.11 1890.19 1808.28 1878.72C1812.71 1870.51 1810.01 1840.23 1803.03 1798.89L1582.4 1897.03Z"
    fill="#FF654D" />
  <path
    d="M1227.78 2081.13C1226.92 2081.13 1226.09 2080.64 1225.7 2079.81C1225.15 2078.67 1225.64 2077.29 1226.79 2076.75L1332.28 2026.6C1333.43 2026.05 1334.8 2026.53 1335.35 2027.68C1335.89 2028.84 1335.4 2030.21 1334.25 2030.76L1228.77 2080.91C1228.45 2081.05 1228.11 2081.13 1227.78 2081.13Z"
    fill="#000D41" />
  <path
    d="M952.011 651.933C952.011 666.76 939.991 678.773 925.163 678.773H677.76C662.933 678.773 650.913 666.76 650.913 651.933V516.133C650.913 501.307 662.933 489.28 677.76 489.28H925.161C939.991 489.28 952.011 501.307 952.011 516.133V651.933Z"
    fill="#FF654D" />
  <path d="M761.652 637.133H781.268L837.708 530.933H818.092L761.652 637.133Z" fill="#F8F8F8" />
  <path
    d="M900.945 587.187H900.804L870.437 544.227H849.612L880.047 587.307L849.612 628.333H870.437L900.804 587.427H900.945L900.873 587.307L900.945 587.187Z"
    fill="#F8F8F8" />
  <path
    d="M701.979 587.187H702.12L732.483 544.227H751.512L721.076 587.307L751.512 628.333H732.483L702.12 587.427H701.979L702.049 587.307L701.979 587.187Z"
    fill="#F8F8F8" />
  <path
    d="M2071.6 908.853C2071.6 926.587 2057.21 940.96 2039.48 940.96H1743.6C1725.87 940.96 1711.49 926.587 1711.49 908.853V746.44C1711.49 728.707 1725.87 714.333 1743.6 714.333H2039.48C2057.21 714.333 2071.6 728.707 2071.6 746.44V908.853Z"
    fill="#1957C2" />
  <path
    d="M1809.57 822.187C1808.36 823.8 1806.2 825.507 1803.08 827.32L1799.61 829.587C1800.61 830.387 1801.77 831.147 1803.08 831.84C1805.29 833.253 1806.93 834.413 1807.99 835.307C1809.04 836.213 1809.87 837.427 1810.48 838.933C1811.08 840.44 1811.39 842.494 1811.39 845.12V872.707C1811.39 876.627 1812.51 879.44 1814.77 881.16C1817.04 882.867 1820.83 883.72 1826.16 883.72V895.173H1820.88C1812.84 895.173 1807.08 893.774 1803.61 890.96C1800.15 888.134 1798.41 883.413 1798.41 876.773V844.213C1798.41 841.093 1797.85 838.853 1796.75 837.507C1795.65 836.133 1793.93 835.467 1791.63 835.467H1787.25V823.854H1791.63C1793.93 823.854 1795.65 823.173 1796.75 821.813C1797.85 820.467 1798.41 818.227 1798.41 815.107V782.547C1798.41 776 1800.15 771.307 1803.61 768.44C1807.08 765.573 1812.84 764.147 1820.88 764.147H1826.16V775.6C1820.83 775.6 1817.04 776.454 1814.77 778.16C1812.51 779.867 1811.39 782.693 1811.39 786.613V814.347C1811.39 817.973 1810.77 820.587 1809.57 822.187Z"
    fill="#F8F8F8" />
  <path
    d="M1995.83 823.854V835.467H1991.45C1989.15 835.467 1987.44 836.133 1986.33 837.507C1985.23 838.853 1984.68 841.093 1984.68 844.213V876.773C1984.68 883.413 1982.93 888.134 1979.47 890.96C1976 893.774 1970.24 895.173 1962.21 895.173H1956.93V883.72C1962.25 883.72 1966.05 882.867 1968.31 881.16C1970.57 879.44 1971.71 876.627 1971.71 872.707V845.12C1971.71 842.494 1972 840.44 1972.61 838.933C1973.21 837.427 1974.04 836.213 1975.09 835.307C1976.16 834.413 1977.79 833.253 1980 831.84C1981.31 831.147 1982.47 830.387 1983.47 829.587L1980 827.32C1976.88 825.507 1974.72 823.8 1973.51 822.187C1972.31 820.587 1971.71 817.973 1971.71 814.347V786.613C1971.71 782.693 1970.57 779.867 1968.31 778.16C1966.05 776.454 1962.25 775.6 1956.93 775.6V764.147H1962.21C1970.24 764.147 1976 765.573 1979.47 768.44C1982.93 771.307 1984.68 776 1984.68 782.547V815.107C1984.68 818.227 1985.23 820.467 1986.33 821.813C1987.44 823.173 1989.15 823.854 1991.45 823.854H1995.83Z"
    fill="#F8F8F8" />
  <path
    d="M1896.52 422.84C1888.12 475.454 1838.65 511.293 1786.04 502.88C1733.43 494.48 1697.59 445.014 1705.99 392.4C1714.4 339.787 1763.87 303.947 1816.48 312.36C1869.09 320.76 1904.93 370.227 1896.52 422.84Z"
    fill="#1957C2" />
  <path
    d="M1756.65 384.187L1754.76 396.067L1767.65 398.12L1769.56 386.24L1775.99 387.267L1771.43 415.76L1765 414.733L1766.8 403.493L1753.89 401.44L1752.11 412.667L1745.67 411.64L1750.23 383.16L1756.65 384.187Z"
    fill="white" />
  <path
    d="M1803.25 391.627L1802.39 397.08L1793.67 395.693L1789.99 418.72L1783.56 417.693L1787.24 394.667L1778.57 393.28L1779.44 387.827L1803.25 391.627Z"
    fill="white" />
  <path
    d="M1813.92 393.333L1819.44 412.08L1830.48 395.973L1837.64 397.12L1833.09 425.613L1827.31 424.68L1830.37 405.48L1820.2 420.587L1816.01 419.92L1811.05 402.387L1807.99 421.6L1802.16 420.667L1806.72 392.187L1813.92 393.333Z"
    fill="white" />
  <path d="M1850.39 399.16L1846.73 422.027L1858.93 423.974L1858.04 429.6L1839.4 426.613L1843.95 398.133L1850.39 399.16Z"
    fill="white" />
  <path
    d="M273.647 1215.27C231.151 1211.68 193.789 1243.21 190.196 1285.71C186.604 1328.21 218.14 1365.57 260.637 1369.16C303.133 1372.76 340.495 1341.21 344.088 1298.72C347.68 1256.23 316.143 1218.87 273.647 1215.27Z"
    fill="#1957C2" />
  <path
    d="M238.505 1312.43C231.819 1311.85 226.652 1308.56 222.871 1303.29L228.736 1295.76C231.911 1299.76 235.739 1301.95 238.797 1302.2C242.497 1302.52 244.965 1300.43 245.327 1296.16L247.36 1272.12L230.215 1270.67L231.02 1261.13L259.475 1263.53L256.612 1297.4C255.728 1307.85 248.821 1313.29 238.505 1312.43Z"
    fill="white" />
  <path
    d="M286.003 1274.95C282.232 1274.64 279.557 1275.77 279.329 1278.47C278.553 1287.65 305.521 1284.77 303.935 1302.69C303.111 1312.44 294.199 1316.99 283.173 1316.05C274.992 1315.36 267.076 1311.55 261.86 1306.29L267.115 1297.51C271.855 1302.49 278.861 1306.01 284.127 1306.47C288.751 1306.85 291.668 1305.39 291.928 1302.32C292.721 1292.93 265.723 1296.16 267.215 1278.52C267.979 1269.49 276.215 1264.45 287.74 1265.43C294.711 1266.01 301.503 1268.75 306.204 1272.44L301.077 1281.39C296.077 1277.81 289.988 1275.29 286.003 1274.95Z"
    fill="white" />
  <path
    d="M2328.89 1984.2C2328.89 1997.88 2317.8 2008.97 2304.12 2008.97H2170.61C2156.92 2008.97 2145.83 1997.88 2145.83 1984.2V1858.87C2145.83 1845.17 2156.92 1834.08 2170.61 1834.08H2304.11C2317.8 1834.08 2328.89 1845.17 2328.89 1858.87V1984.2Z"
    fill="#FFCB30" />
  <path
    d="M2249.01 1870.8H2225.77V1884.55C2223.59 1885.23 2221.48 1886.11 2219.47 1887.16L2209.73 1877.41L2193.29 1893.84L2203.03 1903.57C2201.97 1905.57 2201.09 1907.68 2200.4 1909.88H2186.63V1933.12H2200.37C2201.05 1935.31 2201.95 1937.41 2202.99 1939.41L2193.24 1949.16L2209.68 1965.6L2219.4 1955.87C2221.41 1956.92 2223.52 1957.8 2225.71 1958.49V1972.27H2248.95V1958.52C2251.13 1957.83 2253.24 1956.95 2255.25 1955.91L2265 1965.65L2281.43 1949.21L2271.71 1939.48C2272.75 1937.48 2273.64 1935.37 2274.32 1933.19H2288.09V1909.95H2274.35C2273.67 1907.75 2272.77 1905.65 2271.73 1903.64L2281.48 1893.89L2265.04 1877.47L2255.32 1887.19C2253.31 1886.15 2251.21 1885.25 2249.01 1884.56V1870.8ZM2244.51 1875.31V1887.88L2247.67 1888.87C2249.55 1889.47 2251.43 1890.25 2253.23 1891.19L2256.16 1892.73L2258.51 1890.39L2265.04 1883.85L2275.09 1893.89L2268.55 1900.45L2266.2 1902.79L2267.73 1905.73C2268.67 1907.55 2269.45 1909.41 2270.04 1911.29L2271.03 1914.47H2274.35H2283.59V1928.67H2274.32H2271.01L2270.01 1931.83C2269.43 1933.72 2268.64 1935.59 2267.69 1937.39L2266.16 1940.33L2268.51 1942.68L2275.04 1949.21L2265 1959.27L2258.44 1952.71L2256.11 1950.36L2253.16 1951.89C2251.35 1952.84 2249.48 1953.61 2247.6 1954.21L2244.43 1955.2V1958.52V1967.75H2230.23V1958.49V1955.19L2227.07 1954.19C2225.17 1953.59 2223.31 1952.81 2221.51 1951.87L2218.56 1950.33L2216.21 1952.68L2209.68 1959.21L2199.63 1949.16L2206.19 1942.61L2208.52 1940.27L2207 1937.33C2206.05 1935.52 2205.27 1933.65 2204.68 1931.77L2203.69 1928.6H2200.37H2191.15V1914.39H2200.4H2203.71L2204.71 1911.23C2205.29 1909.35 2206.08 1907.47 2207.03 1905.67L2208.56 1902.73L2206.21 1900.39L2199.68 1893.84L2209.72 1883.8L2216.28 1890.35L2218.63 1892.69L2221.56 1891.16C2223.37 1890.21 2225.24 1889.44 2227.12 1888.85L2230.29 1887.87V1884.55V1875.31H2244.51Z"
    fill="white" />
  <path
    d="M2237.36 1897.11C2223.87 1897.11 2212.93 1908.04 2212.93 1921.53C2212.93 1935.03 2223.87 1945.96 2237.36 1945.96C2250.85 1945.96 2261.79 1935.03 2261.79 1921.53C2261.79 1908.04 2250.85 1897.11 2237.36 1897.11ZM2237.36 1901.61C2248.35 1901.61 2257.28 1910.55 2257.28 1921.53C2257.28 1932.51 2248.35 1941.44 2237.36 1941.44C2226.39 1941.44 2217.45 1932.51 2217.45 1921.53C2217.45 1910.55 2226.39 1901.61 2237.36 1901.61Z"
    fill="white" />
  <path
    d="M2332.69 678.773C2332.69 731.427 2290.01 774.107 2237.36 774.107C2184.72 774.107 2142.04 731.427 2142.04 678.773C2142.04 626.133 2184.72 583.453 2237.36 583.453C2290.01 583.453 2332.69 626.133 2332.69 678.773Z"
    fill="#FF654D" />
  <path
    d="M2202.25 667.64C2194.77 667.64 2188.99 673.413 2188.99 681.013C2188.99 688.6 2194.77 694.453 2202.25 694.453C2206.16 694.453 2210.45 692.453 2213.57 689.347L2219.36 695.64C2214.76 700.36 2208.09 703.413 2201.75 703.413C2188.75 703.413 2178.92 693.76 2178.92 681.133C2178.92 668.56 2188.93 659.107 2202.12 659.107C2208.4 659.107 2215 661.907 2219.29 666.333L2213.57 673.293C2210.59 669.88 2206.29 667.64 2202.25 667.64Z"
    fill="white" />
  <path
    d="M2240.31 667.387C2237.01 667.387 2234.77 668.56 2234.77 670.933C2234.77 678.96 2257.97 674.48 2257.91 690.16C2257.91 698.68 2250.51 703.28 2240.87 703.28C2233.71 703.28 2226.55 700.547 2221.64 696.387L2225.56 688.36C2230.04 692.333 2236.39 694.88 2240.99 694.88C2245.03 694.88 2247.45 693.4 2247.45 690.72C2247.45 682.507 2224.25 687.293 2224.25 671.867C2224.25 663.96 2231.03 658.987 2241.11 658.987C2247.21 658.987 2253.31 660.853 2257.67 663.72L2253.87 671.867C2249.27 669.133 2243.79 667.387 2240.31 667.387Z"
    fill="white" />
  <path
    d="M2279.92 667.387C2276.63 667.387 2274.39 668.56 2274.39 670.933C2274.39 678.96 2297.59 674.48 2297.52 690.16C2297.52 698.68 2290.12 703.28 2280.48 703.28C2273.32 703.28 2266.17 700.547 2261.25 696.387L2265.17 688.36C2269.65 692.333 2276 694.88 2280.6 694.88C2284.64 694.88 2287.07 693.4 2287.07 690.72C2287.07 682.507 2263.87 687.293 2263.87 671.867C2263.87 663.96 2270.64 658.987 2280.72 658.987C2286.83 658.987 2292.92 660.853 2297.28 663.72L2293.48 671.867C2288.88 669.133 2283.4 667.387 2279.92 667.387Z"
    fill="white" />
  <path
    d="M1559.47 585.04C1558.91 628.24 1523.43 662.813 1480.23 662.253C1437.04 661.693 1402.47 626.213 1403.03 583.013C1403.59 539.827 1439.07 505.253 1482.25 505.813C1525.45 506.373 1560.03 541.84 1559.47 585.04Z"
    fill="#FF654D" />
  <path
    d="M1438.27 566.213L1444.87 578.28L1451.81 566.387L1460.47 566.493L1449.44 585.107L1460.88 605.693L1452.15 605.573L1444.68 592.44L1437.03 605.387L1428.47 605.28L1440.33 585.387L1429.76 566.107L1438.27 566.213Z"
    fill="white" />
  <path
    d="M1473.68 566.667L1482.8 590.747L1492.51 566.92L1500.64 567.027L1500.13 606.2L1493.56 606.12L1493.91 579.694L1485.01 602.027L1480.25 601.974L1471.95 579.413L1471.6 605.827L1464.99 605.747L1465.51 566.56L1473.68 566.667Z"
    fill="white" />
  <path
    d="M1515.11 567.213L1514.69 598.667L1528.57 598.84L1528.47 606.573L1507.29 606.293L1507.8 567.107L1515.11 567.213Z"
    fill="white" />
  <path
    d="M458.229 942.107C470.799 983.92 447.089 1028.01 405.275 1040.57C363.46 1053.15 319.373 1029.44 306.805 987.627C294.236 945.813 317.944 901.72 359.76 889.147C401.575 876.587 445.661 900.293 458.229 942.107Z"
    fill="#9E8FAE" />
  <path
    d="M345.94 962.373C343.641 963.067 342.38 964.533 342.98 966.533C345.015 973.293 360.055 964.653 363.989 977.907C366.151 985.093 362.159 990.533 355.437 992.547C350.448 994.053 344.768 993.24 340.284 990.747L340.981 983.16C345.112 985.573 350.183 986.4 353.392 985.44C356.211 984.587 357.525 982.813 356.847 980.56C354.763 973.627 339.803 982.533 335.888 969.52C333.885 962.853 337.348 957.227 344.373 955.12C348.624 953.84 353.347 954.133 357.109 955.64L356.531 963.307C352.627 961.96 348.369 961.64 345.94 962.373Z"
    fill="white" />
  <path
    d="M384.211 976.12C389.284 974.587 391.889 968.307 389.948 961.854C388.008 955.4 382.404 951.707 377.331 953.227C372.213 954.76 369.445 960.973 371.387 967.44C373.327 973.893 379.136 977.64 384.211 976.12ZM405.443 982.093C403.859 985.32 401.021 987.84 398.072 988.72C393.951 989.96 389.508 987.92 385.868 983.52C376.723 985.974 367.517 980.04 364.361 969.547C361.141 958.84 365.784 948.8 375.065 946C384.347 943.213 393.769 949.08 396.973 959.747C399.435 967.933 397.276 975.853 391.921 980.373C393.659 981.747 395.404 982.36 396.877 981.92C398.353 981.48 399.973 979.787 401.344 977.427L405.443 982.093Z"
    fill="white" />
  <path
    d="M403.069 937.88L411.939 967.373L424.948 963.467L427.127 970.72L407.264 976.68L396.217 939.933L403.069 937.88Z"
    fill="white" />
  <path
    d="M1234.47 364.52C1245.91 415.507 1213.85 466.134 1162.85 477.574C1111.85 489.014 1061.24 456.947 1049.8 405.947C1038.35 354.947 1070.42 304.333 1121.42 292.893C1172.42 281.453 1223.03 313.52 1234.47 364.52Z"
    fill="#9E8FAE" />
  <path
    d="M1108.42 382.667C1107.42 378.347 1104.15 376.827 1099.27 377.947L1092 379.627L1095.04 392.774L1102.31 391.093C1107.19 389.96 1109.45 387.107 1108.42 382.667ZM1116.68 380.467C1118.76 389.507 1114.31 396.027 1104.44 398.307L1096.73 400.093L1099.29 411.187L1090.53 413.213L1081.56 374.387L1098.03 370.587C1107.91 368.307 1114.69 371.88 1116.68 380.467Z"
    fill="white" />
  <path
    d="M1127.91 363.68L1131.65 379.88L1149.23 375.813L1145.49 359.627L1154.26 357.6L1163.22 396.413L1154.46 398.44L1150.92 383.133L1133.34 387.2L1136.88 402.507L1128.11 404.533L1119.15 365.707L1127.91 363.68Z"
    fill="white" />
  <path
    d="M1189.63 363.907C1188.63 359.587 1185.36 358.067 1180.48 359.187L1173.21 360.867L1176.25 374.014L1183.51 372.334C1188.4 371.214 1190.66 368.347 1189.63 363.907ZM1197.89 361.707C1199.97 370.747 1195.52 377.28 1185.65 379.56L1177.94 381.334L1180.5 392.427L1171.74 394.454L1162.77 355.627L1179.24 351.827C1189.11 349.547 1195.9 353.12 1197.89 361.707Z"
    fill="white" />
  <path
    d="M2404.72 1141.13C2404.72 1171.6 2380.03 1196.29 2349.56 1196.29C2319.11 1196.29 2294.41 1171.6 2294.41 1141.13C2294.41 1110.68 2319.11 1085.99 2349.56 1085.99C2380.03 1085.99 2404.72 1110.68 2404.72 1141.13Z"
    fill="#FFCB30" />
  <path
    d="M2335.63 1135.53C2331.28 1135.56 2327.93 1138.95 2327.96 1143.36C2328 1147.79 2331.39 1151.16 2335.73 1151.15C2338.01 1151.12 2340.51 1149.95 2342.31 1148.13L2345.69 1151.76C2343.04 1154.53 2339.17 1156.33 2335.48 1156.36C2327.91 1156.41 2322.15 1150.83 2322.09 1143.48C2322.05 1136.16 2327.85 1130.61 2335.53 1130.56C2339.19 1130.55 2343.04 1132.15 2345.56 1134.71L2342.25 1138.79C2340.49 1136.8 2337.99 1135.51 2335.63 1135.53Z"
    fill="white" />
  <path
    d="M2362.57 1140.64L2357.07 1140.68L2356.41 1146.16L2361.92 1146.12L2362.57 1140.64ZM2366.59 1140.61L2365.97 1146.09L2370.87 1146.07L2370.45 1150.09L2365.49 1150.12L2364.8 1155.92L2360.79 1155.95L2361.47 1150.15L2355.96 1150.17L2355.28 1155.97L2351.23 1156.01L2351.91 1150.2L2346.99 1150.24L2347.39 1146.21L2352.39 1146.19L2353.01 1140.71L2348.12 1140.73L2348.52 1136.72L2353.49 1136.68L2354.21 1130.63L2358.24 1130.6L2357.51 1136.65L2363.01 1136.63L2363.73 1130.57L2367.8 1130.55L2367.08 1136.6L2372 1136.56L2371.63 1140.59L2366.59 1140.61Z"
    fill="white" />
  <path
    d="M585.64 1797.71C585.64 1844.61 547.62 1882.63 500.721 1882.63C453.821 1882.63 415.803 1844.61 415.803 1797.71C415.803 1750.81 453.821 1712.79 500.721 1712.79C547.62 1712.79 585.64 1750.81 585.64 1797.71Z"
    fill="#1957C2" />
  <path
    d="M482.859 1782.32C475.48 1782.36 469.796 1788.12 469.843 1795.63C469.893 1803.12 475.649 1808.87 483.027 1808.83C486.904 1808.8 491.135 1806.8 494.193 1803.71L499.949 1809.88C495.428 1814.59 488.865 1817.64 482.593 1817.68C469.737 1817.77 459.961 1808.29 459.881 1795.81C459.801 1783.39 469.645 1773.97 482.687 1773.89C488.9 1773.85 495.437 1776.57 499.705 1780.92L494.092 1787.84C491.117 1784.48 486.859 1782.29 482.859 1782.32Z"
    fill="white" />
  <path
    d="M528.593 1791L519.251 1791.07L518.14 1800.36L527.484 1800.31L528.593 1791ZM535.425 1790.96L534.375 1800.27L542.676 1800.2L541.988 1807.04L533.559 1807.09L532.388 1816.95L525.56 1816.99L526.728 1807.13L517.385 1807.19L516.212 1817.04L509.327 1817.09L510.495 1807.24L502.125 1807.29L502.823 1800.45L511.309 1800.4L512.36 1791.11L504.057 1791.16L504.751 1784.33L513.179 1784.28L514.401 1774L521.233 1773.95L520.005 1784.23L529.349 1784.17L530.576 1773.89L537.467 1773.85L536.24 1784.13L544.609 1784.08L543.971 1790.91L535.425 1790.96Z"
    fill="white" />
  <path
    d="M2097.21 1172.89C2048.59 1172.89 2009.17 1212.32 2009.17 1260.95C2009.17 1309.56 2048.59 1348.99 2097.21 1348.99C2145.84 1348.99 2185.25 1309.56 2185.25 1260.95C2185.25 1212.32 2145.84 1172.89 2097.21 1172.89Z"
    fill="#9E8FAE" />
  <path
    d="M2065.95 1251.84C2058.35 1251.84 2052.45 1257.75 2052.45 1265.47C2052.45 1273.2 2058.35 1279.15 2065.95 1279.15C2069.93 1279.15 2074.31 1277.12 2077.48 1273.96L2083.37 1280.36C2078.68 1285.16 2071.91 1288.27 2065.44 1288.27C2052.2 1288.27 2042.2 1278.45 2042.2 1265.59C2042.2 1252.8 2052.39 1243.17 2065.83 1243.17C2072.21 1243.17 2078.93 1246.01 2083.31 1250.52L2077.48 1257.61C2074.44 1254.12 2070.07 1251.84 2065.95 1251.84Z"
    fill="white" />
  <path
    d="M2114.39 1270.41H2103.55V1281.11H2097.35V1270.41H2086.51V1263.95H2097.35V1253.17H2103.55V1263.95H2114.39V1270.41Z"
    fill="white" />
  <path
    d="M2146.41 1270.41H2135.59V1281.11H2129.37V1270.41H2118.55V1263.95H2129.37V1253.17H2135.59V1263.95H2146.41V1270.41Z"
    fill="white" />
  <path
    d="M856.275 287.92C851.813 287.547 847.421 287.28 843.224 287.134L843.297 284.947C847.533 285.093 851.963 285.36 856.461 285.747L856.275 287.92ZM812.819 288.387L812.539 286.213C816.768 285.667 821.196 285.28 825.701 285.054L825.812 287.24C821.363 287.467 816.991 287.854 812.819 288.387ZM886.565 291.893C881.841 291.12 877.603 290.467 873.611 289.907L873.915 287.747C877.924 288.307 882.179 288.96 886.919 289.734L886.565 291.893ZM783.364 295.56L782.589 293.507C786.625 291.987 790.873 290.64 795.217 289.52L795.764 291.627C791.499 292.733 787.327 294.053 783.364 295.56ZM916.744 297.147C912.965 296.493 909.188 295.827 905.411 295.147L903.805 294.867L904.188 292.707L905.792 293C909.567 293.667 913.341 294.334 917.117 294.987L916.744 297.147ZM947.109 301.667C942.991 301.2 938.721 300.64 934.056 299.947L934.375 297.787C939.016 298.467 943.263 299.027 947.359 299.493L947.109 301.667ZM975.892 303.44C972.251 303.44 968.459 303.347 964.62 303.147L964.733 300.96C968.532 301.16 972.287 301.254 975.892 301.254H977.792L977.813 303.44H975.892ZM757.133 310.4L755.744 308.72C759.203 305.88 762.864 303.307 766.628 301.093L767.739 302.974C764.072 305.134 760.504 307.64 757.133 310.4ZM701.545 325.813L701.173 323.654C704.387 323.107 707.655 322.6 710.892 322.147C711.997 321.987 713.108 321.84 714.221 321.707L714.497 323.88C713.392 324.013 712.291 324.16 711.193 324.32C707.98 324.76 704.733 325.267 701.545 325.813ZM774.699 327.227C770.736 325.92 766.505 324.854 762.128 324.054L762.521 321.893C766.997 322.707 771.327 323.813 775.388 325.147L774.699 327.227ZM671.733 332.427L671.156 330.32C675.391 329.16 679.692 328.08 683.94 327.107L684.431 329.24C680.211 330.214 675.937 331.28 671.733 332.427ZM737.492 333.24L735.611 332.12C737.651 328.694 739.961 325.347 742.488 322.187C739.029 322.12 735.509 322.173 731.845 322.333L731.745 320.147C736.317 319.933 740.655 319.907 744.963 320.054L744.885 322.254C744.741 322.24 744.595 322.24 744.451 322.227L744.939 322.627C742.183 326 739.677 329.56 737.492 333.24ZM642.696 341.854L641.924 339.813C646.013 338.267 650.192 336.787 654.341 335.413L655.031 337.48C650.908 338.853 646.757 340.32 642.696 341.854ZM800.568 342.213C797.517 339.267 794.211 336.707 790.741 334.587L790.381 334.374L791.503 332.493L791.881 332.72C795.487 334.92 798.92 337.587 802.088 340.64L800.568 342.213ZM614.647 353.893L613.695 351.933C617.641 350.013 621.667 348.16 625.656 346.427L626.533 348.427C622.568 350.16 618.569 352 614.647 353.893ZM727.419 361.493L725.249 361.213C725.809 356.907 726.813 352.533 728.231 348.227L730.309 348.907C728.936 353.094 727.963 357.32 727.419 361.493ZM816.391 367.467C815.107 363.453 813.341 359.494 811.145 355.72L813.039 354.613C815.313 358.533 817.143 362.627 818.476 366.8L816.391 367.467ZM587.777 368.387L586.656 366.507C590.405 364.267 594.251 362.067 598.087 359.974L599.137 361.893C595.327 363.973 591.504 366.16 587.777 368.387ZM562.247 385.12L560.971 383.347C564.536 380.787 568.18 378.267 571.803 375.854L573.013 377.68C569.413 380.08 565.789 382.574 562.247 385.12ZM729.115 391.827C728.889 391.307 728.673 390.774 728.471 390.24C727.088 386.614 726.075 382.814 725.455 378.974L727.616 378.627C728.212 382.32 729.188 385.974 730.516 389.454C730.709 389.974 730.913 390.467 731.128 390.974L729.115 391.827ZM818.463 397.587L816.409 396.827C817.86 392.92 818.676 388.707 818.835 384.333L821.023 384.413C820.855 389.027 819.995 393.454 818.463 397.587ZM538.201 403.947L536.781 402.28C540.107 399.44 543.528 396.627 546.955 393.92L548.313 395.627C544.908 398.333 541.504 401.12 538.201 403.947ZM749.881 414.587C745.943 412.28 742.364 409.547 739.248 406.48L740.783 404.92C743.771 407.854 747.205 410.48 750.989 412.693L749.881 414.587ZM797.163 419.574L796.347 417.547C800.401 415.92 804.019 413.667 807.1 410.84L808.576 412.467C805.301 415.453 801.461 417.854 797.163 419.574ZM779.637 422.8C775.259 422.8 770.796 422.253 766.375 421.2L766.883 419.08C771.139 420.093 775.429 420.613 779.64 420.613L779.637 422.8ZM515.781 424.68L514.229 423.133C517.309 420.04 520.491 416.96 523.687 413.974L525.181 415.56C522.005 418.547 518.843 421.613 515.781 424.68ZM495.123 447.187L493.452 445.774C496.276 442.427 499.196 439.093 502.131 435.867L503.751 437.333C500.835 440.547 497.932 443.867 495.123 447.187ZM476.369 471.293L474.588 470.027C477.137 466.453 479.775 462.894 482.428 459.44L484.165 460.774C481.525 464.214 478.903 467.747 476.369 471.293ZM459.671 496.88L457.789 495.76C460.028 492 462.361 488.24 464.727 484.56L466.567 485.747C464.216 489.4 461.896 493.147 459.671 496.88ZM445.185 523.787L443.215 522.827C445.117 518.907 447.124 514.947 449.179 511.08L451.112 512.107C449.069 515.947 447.076 519.88 445.185 523.787ZM433.08 551.827L431.033 551.04C432.588 546.96 434.243 542.84 435.951 538.813L437.964 539.68C436.268 543.68 434.624 547.76 433.08 551.827ZM423.528 580.813L421.421 580.227C422.588 576.04 423.865 571.8 425.215 567.613L427.299 568.28C425.956 572.44 424.689 576.667 423.528 580.813ZM416.697 610.547L414.544 610.16C415.317 605.867 416.193 601.52 417.145 597.254L419.28 597.733C418.335 601.973 417.467 606.28 416.697 610.547ZM412.743 640.787L410.561 640.6C410.916 636.253 411.368 631.84 411.905 627.507L414.077 627.773C413.544 632.08 413.095 636.454 412.743 640.787Z"
    fill="#9E8FAE" />
  <path
    d="M1949.19 393.174L1948.97 391C1952.88 390.613 1956.88 390.413 1960.85 390.413L1962.21 390.427L1962.19 392.613H1960.85C1956.95 392.613 1953.03 392.8 1949.19 393.174ZM1992.23 396.6C1988.01 395.52 1983.72 394.653 1979.47 394.013L1979.8 391.853C1984.12 392.507 1988.49 393.387 1992.76 394.48L1992.23 396.6ZM2020.61 407.293C2016.75 405.333 2012.75 403.533 2008.73 401.947L2009.55 399.907C2013.61 401.52 2017.67 403.347 2021.6 405.347L2020.61 407.293ZM2046.08 423.813C2042.72 421.093 2039.19 418.48 2035.6 416.08L2036.81 414.253C2040.47 416.707 2044.05 419.347 2047.45 422.12L2046.08 423.813ZM2067.4 445.4C2064.73 442.013 2061.85 438.72 2058.85 435.574L2060.43 434.067C2063.48 437.253 2066.4 440.614 2069.12 444.04L2067.4 445.4ZM2083.28 471.213C2081.49 467.307 2079.45 463.44 2077.24 459.693L2079.12 458.574C2081.39 462.387 2083.45 466.333 2085.28 470.293L2083.28 471.213ZM2092.36 500.093C2091.59 495.827 2090.59 491.56 2089.37 487.44L2091.48 486.813C2092.71 491.027 2093.73 495.36 2094.51 499.707L2092.36 500.093ZM2096.32 530.48L2094.13 530.36C2094.28 527.813 2094.36 525.24 2094.36 522.707C2094.36 520.907 2094.32 519.12 2094.25 517.333L2096.44 517.253C2096.51 519.067 2096.55 520.88 2096.55 522.707C2096.55 525.28 2096.47 527.907 2096.32 530.48ZM2091.17 560.867L2089.07 560.267C2090.25 556.093 2091.25 551.827 2092.04 547.587L2094.19 547.987C2093.4 552.293 2092.37 556.627 2091.17 560.867ZM2079.67 589.453L2077.75 588.427C2079.77 584.627 2081.65 580.667 2083.33 576.653L2085.35 577.507C2083.64 581.573 2081.73 585.6 2079.67 589.453ZM2062.29 614.92L2060.64 613.493C2063.44 610.227 2066.13 606.773 2068.64 603.213L2070.44 604.48C2067.89 608.093 2065.15 611.6 2062.29 614.92ZM2039.57 635.747L2038.31 633.96C2041.8 631.467 2045.21 628.733 2048.47 625.853L2049.92 627.493C2046.61 630.427 2043.13 633.2 2039.57 635.747Z"
    fill="#9E8FAE" />
  <path
    d="M2241.64 824.973L2239.73 823.893C2241.92 820.053 2244.49 816.373 2247.37 812.987L2249.04 814.4C2246.24 817.693 2243.76 821.253 2241.64 824.973ZM2232.59 853.56L2230.41 853.32C2230.91 848.84 2231.76 844.44 2232.93 840.267L2235.04 840.853C2233.89 844.92 2233.07 849.2 2232.59 853.56ZM2232.08 884.12C2231.17 879.733 2230.55 875.32 2230.19 871L2232.37 870.827C2232.72 875.053 2233.33 879.373 2234.23 883.68L2232.08 884.12ZM2242.09 913.28C2240.16 909.307 2238.43 905.2 2236.92 901.093L2238.99 900.347C2240.45 904.387 2242.16 908.413 2244.05 912.333L2242.09 913.28ZM2258.6 939.32C2255.85 935.92 2253.23 932.32 2250.8 928.627L2252.63 927.427C2255.01 931.067 2257.6 934.6 2260.31 937.947L2258.6 939.32ZM2280.6 960.893C2277.13 958.093 2273.79 955.187 2270.63 952.24L2272.12 950.64C2275.24 953.547 2278.56 956.427 2281.99 959.187L2280.6 960.893ZM2305.85 978.467C2302.01 976.133 2298.27 973.733 2294.76 971.347L2295.99 969.547C2299.47 971.907 2303.17 974.28 2306.99 976.587L2305.85 978.467ZM2332.81 993.187C2328.63 991.093 2324.8 989.12 2321.12 987.147L2322.15 985.213C2325.83 987.187 2329.63 989.147 2333.79 991.227L2332.81 993.187ZM2360.53 1006.32C2356.55 1004.49 2352.57 1002.65 2348.61 1000.8L2349.53 998.813C2353.49 1000.67 2357.47 1002.51 2361.44 1004.33L2360.53 1006.32ZM2388.33 1019.19C2384.39 1017.31 2380.43 1015.45 2376.44 1013.63L2377.36 1011.63C2381.35 1013.48 2385.32 1015.33 2389.27 1017.21L2388.33 1019.19ZM2415.51 1033.15C2411.79 1031.03 2407.91 1028.93 2404 1026.92L2405 1024.97C2408.93 1027 2412.84 1029.11 2416.59 1031.24L2415.51 1033.15ZM2441.15 1049.67C2437.73 1047.16 2434.11 1044.65 2430.4 1042.23L2431.6 1040.4C2435.35 1042.85 2438.99 1045.37 2442.44 1047.91L2441.15 1049.67ZM2464.39 1069.37C2461.39 1066.39 2458.16 1063.4 2454.8 1060.51L2456.23 1058.85C2459.63 1061.77 2462.89 1064.8 2465.93 1067.83L2464.39 1069.37ZM2483.73 1092.79C2481.41 1089.25 2478.83 1085.72 2476.04 1082.28L2477.75 1080.91C2480.57 1084.4 2483.2 1088 2485.56 1091.59L2483.73 1092.79ZM2496.95 1119.97C2495.65 1115.93 2494.05 1111.87 2492.21 1107.91L2494.19 1106.99C2496.08 1111.03 2497.71 1115.17 2499.04 1119.31L2496.95 1119.97ZM2501.71 1149.77C2501.71 1145.48 2501.41 1141.2 2500.84 1137.01L2502.99 1136.52L2503.01 1136.71C2503.6 1141 2503.89 1145.37 2503.89 1149.69L2501.71 1149.77ZM2499.04 1180.23L2496.96 1179.56C2498.29 1175.41 2499.35 1171.17 2500.12 1166.97L2502.28 1167.37C2501.49 1171.67 2500.4 1175.99 2499.04 1180.23ZM2485.81 1208.05L2483.97 1206.88C2486.33 1203.17 2488.51 1199.37 2490.4 1195.59L2492.36 1196.56C2490.43 1200.43 2488.23 1204.29 2485.81 1208.05ZM2466.4 1231.97L2464.87 1230.43C2467.96 1227.35 2470.92 1224.12 2473.68 1220.84L2475.35 1222.24C2472.56 1225.57 2469.55 1228.84 2466.4 1231.97ZM2442.57 1251.49L2441.36 1249.68C2444.96 1247.27 2448.49 1244.67 2451.88 1241.99L2453.24 1243.69C2449.81 1246.43 2446.23 1249.04 2442.57 1251.49ZM2415.47 1266.16L2414.61 1264.15C2418.6 1262.47 2422.56 1260.59 2426.41 1258.57L2427.43 1260.51C2423.52 1262.56 2419.51 1264.45 2415.47 1266.16ZM2246.53 1272.72C2242.2 1272 2237.89 1271.24 2233.57 1270.48L2233.96 1268.32C2238.25 1269.08 2242.57 1269.84 2246.89 1270.56L2246.53 1272.72ZM2386.09 1275.41L2385.61 1273.28C2389.88 1272.32 2394.13 1271.21 2398.25 1270L2398.87 1272.11C2394.71 1273.33 2390.4 1274.44 2386.09 1275.41ZM2276.87 1277.29C2272.52 1276.72 2268.19 1276.12 2263.84 1275.48L2264.16 1273.31C2268.49 1273.95 2272.81 1274.56 2277.15 1275.12L2276.87 1277.29ZM2355.69 1280.09L2355.49 1277.92C2359.88 1277.53 2364.25 1277.03 2368.48 1276.43L2368.79 1278.59C2364.52 1279.2 2360.11 1279.71 2355.69 1280.09ZM2307.41 1280.33C2303.16 1280.05 2298.75 1279.69 2294.29 1279.27L2294.51 1277.09C2298.93 1277.52 2303.32 1277.88 2307.56 1278.16L2307.41 1280.33ZM2330.89 1281.15C2328.92 1281.15 2326.95 1281.13 2324.96 1281.09L2325 1278.91C2329.37 1278.99 2333.73 1278.97 2338.08 1278.88L2338.13 1281.07C2335.72 1281.12 2333.31 1281.15 2330.89 1281.15Z"
    fill="#9E8FAE" />
  <path
    d="M351.023 1372.8C349.045 1368.87 347.192 1364.83 345.511 1360.8L347.531 1359.96C349.192 1363.95 351.024 1367.93 352.977 1371.81L351.023 1372.8ZM367.029 1399.09C364.455 1395.53 361.973 1391.85 359.655 1388.13L361.511 1386.97C363.804 1390.65 366.257 1394.29 368.803 1397.8L367.029 1399.09ZM386.936 1422.56C383.841 1419.43 380.824 1416.17 377.967 1412.88L379.62 1411.44C382.445 1414.71 385.432 1417.92 388.495 1421.03L386.936 1422.56ZM410.148 1442.77C406.64 1440.15 403.168 1437.37 399.832 1434.53L401.251 1432.87C404.553 1435.68 407.987 1438.43 411.46 1441.01L410.148 1442.77ZM436.113 1459.29C432.257 1457.23 428.412 1455.01 424.684 1452.69L425.839 1450.84C429.528 1453.13 433.332 1455.32 437.147 1457.37L436.113 1459.29ZM464.279 1471.71C460.171 1470.27 456.032 1468.65 451.976 1466.92L452.835 1464.91C456.848 1466.63 460.943 1468.21 465.004 1469.64L464.279 1471.71ZM494.053 1479.53C489.764 1478.77 485.42 1477.84 481.139 1476.77L481.672 1474.64C485.903 1475.71 490.196 1476.63 494.432 1477.37L494.053 1479.53Z"
    fill="#9E8FAE" />
  <path
    d="M1361.99 335.174L1361.72 333C1366.21 332.44 1370.64 332.067 1374.88 331.867L1374.99 334.04C1370.8 334.24 1366.43 334.627 1361.99 335.174ZM1405.23 336.067C1401.05 335.267 1396.72 334.68 1392.33 334.32L1392.51 332.133C1396.97 332.507 1401.39 333.107 1405.64 333.92L1405.23 336.067ZM1332.05 340.974L1331.52 338.84C1336.07 337.707 1340.27 336.747 1344.36 335.907L1344.8 338.054C1340.73 338.88 1336.57 339.84 1332.05 340.974ZM1433.69 346.08C1429.99 344.053 1426.01 342.24 1421.89 340.707L1422.67 338.654C1426.88 340.227 1430.95 342.08 1434.75 344.16L1433.69 346.08ZM1302.57 349.174L1301.96 347.067C1306.15 345.84 1310.36 344.613 1314.58 343.413L1315.18 345.52C1310.97 346.707 1306.76 347.947 1302.57 349.174ZM1456.56 365.427C1453.92 361.973 1450.97 358.787 1447.8 355.96L1449.25 354.333C1452.53 357.253 1455.59 360.534 1458.31 364.107L1456.56 365.427ZM1469.03 392.6C1468.19 388.453 1466.91 384.307 1465.2 380.293L1467.21 379.44C1468.97 383.6 1470.31 387.88 1471.16 392.174L1469.03 392.6ZM1506.79 414.427C1502.51 413.893 1498.13 413.587 1493.8 413.493L1493.85 411.307C1498.25 411.4 1502.71 411.72 1507.05 412.254L1506.79 414.427ZM1536.15 421.827C1532.05 420.227 1527.95 418.88 1523.81 417.76L1524.37 415.654C1528.6 416.787 1532.77 418.16 1536.79 419.72L1536.56 420.813L1536.15 421.827ZM1468.81 422.933L1466.79 422.12C1466.89 421.827 1467.01 421.547 1467.12 421.254C1467.81 419.36 1468.4 417.413 1468.85 415.427C1467.11 415.747 1465.37 416.093 1463.65 416.48L1463.17 414.347C1465.2 413.893 1467.27 413.48 1469.33 413.12C1469.55 411.987 1469.71 410.84 1469.84 409.68L1472.01 409.933C1471.91 410.88 1471.77 411.813 1471.63 412.747C1473.16 412.52 1474.69 412.307 1476.23 412.133L1476.48 414.307C1474.72 414.507 1472.95 414.747 1471.19 415.027C1470.68 417.413 1470 419.747 1469.17 422C1469.05 422.307 1468.93 422.627 1468.81 422.933ZM1435.24 426.893L1434.21 424.96C1438.07 422.92 1442.13 421.08 1446.28 419.467L1447.07 421.507C1443 423.08 1439.03 424.893 1435.24 426.893ZM1562.99 435.987C1559.37 433.547 1555.64 431.267 1551.87 429.2L1552.93 427.28C1556.75 429.373 1560.55 431.694 1564.21 434.174L1562.99 435.987ZM1410.93 444.8L1409.37 443.254C1412.47 440.16 1415.81 437.2 1419.35 434.493L1420.68 436.227C1417.23 438.88 1413.95 441.76 1410.93 444.8ZM1448.55 446.133L1447.43 444.254C1451.13 442.04 1454.52 439.36 1457.48 436.307L1459.05 437.84C1455.96 441.027 1452.43 443.813 1448.55 446.133ZM1424.32 453.093C1422.33 453.093 1420.37 452.96 1418.47 452.667L1418.79 450.507C1422.85 451.107 1427.2 451.027 1431.51 450.267L1431.89 452.413C1429.36 452.867 1426.81 453.093 1424.32 453.093ZM1586.29 455.467C1583.23 452.347 1580.03 449.36 1576.77 446.56L1578.2 444.893C1581.49 447.733 1584.75 450.773 1587.85 453.933L1586.29 455.467ZM1605.56 478.974C1603.11 475.387 1600.51 471.853 1597.81 468.48L1599.52 467.12C1602.25 470.534 1604.89 474.107 1607.37 477.747L1605.56 478.974ZM1620.57 505.454C1618.76 501.52 1616.77 497.6 1614.68 493.8L1616.6 492.747C1618.72 496.587 1620.72 500.56 1622.56 504.533L1620.57 505.454ZM1631.11 534.013C1629.96 529.973 1628.68 525.947 1627.31 522.027L1627.13 521.56L1629.2 520.84L1629.36 521.294C1630.76 525.254 1632.05 529.333 1633.21 533.413L1631.11 534.013ZM1637.39 563.827C1636.77 559.48 1636.03 555.147 1635.19 550.947L1637.33 550.507C1638.19 554.76 1638.93 559.134 1639.56 563.52L1637.39 563.827ZM1639.89 594.213C1639.77 589.813 1639.56 585.414 1639.25 581.16L1641.44 581C1641.75 585.293 1641.96 589.72 1642.08 594.16L1639.89 594.213ZM1641.28 624.894L1639.09 624.72C1639.43 620.32 1639.67 615.934 1639.8 611.654L1641.99 611.733C1641.84 616.027 1641.6 620.454 1641.28 624.894ZM1637.65 655.4L1635.49 655.054C1636.19 650.734 1636.81 646.374 1637.35 642.094L1639.52 642.36C1638.99 646.68 1638.35 651.053 1637.65 655.4Z"
    fill="#9E8FAE" />
</svg>